<svg xmlns="http://www.w3.org/2000/svg" width="96" height="64" viewBox="0 0 96 64"><path fill="#8C8C90" d="M48 0c-8.8 0-16 7.2-16 16s7.2 16 16 16 16-7.2 16-16-7.2-16-16-16zm4.2 15.9h-2.8v9.9h-4.1v-9.9h-1.9v-3.5h1.9v-2.2c0-1.6.8-4.2 4.2-4.2h3v3.4h-2.2c-.3 0-.9.2-.9 1v2.1h3.1l-.3 3.4z"/><path fill="#005BAC" d="M48 32c-8.8 0-16 7.2-16 16s7.2 16 16 16 16-7.2 16-16-7.2-16-16-16zm4.2 15.9h-2.8v9.9h-4.1v-9.9h-1.9v-3.5h1.9v-2.2c0-1.6.8-4.2 4.2-4.2h3v3.4h-2.2c-.3 0-.9.2-.9 1v2.1h3.1l-.3 3.4z"/><path fill="#8C8C90" d="M16 0c-8.8 0-16 7.2-16 16s7.2 16 16 16 16-7.2 16-16-7.2-16-16-16zm8.1 12.8v.6c0 5.3-4.1 11.4-11.5 11.4-2.2 0-4.4-.6-6.2-1.8h1c1.9 0 3.6-.6 5-1.8-1.8 0-3.3-1.2-3.8-2.8.2.1.5.1.7.1.4 0 .7-.1 1-.2-1.8-.4-3.2-2-3.2-3.9v-.1c.6.3 1.2.5 1.8.5-1.1-.7-1.8-1.9-1.8-3.4 0-.7.2-1.4.6-2 2 2.4 5 4.1 8.3 4.2-.2-.3-.2-.6-.2-1 0-2.2 1.8-4 4-4 1.1 0 2.2.5 3 1.3.9-.2 1.8-.5 2.6-1-.3 1-1 1.8-1.8 2.2.8-.1 1.6-.3 2.3-.6-.4 1-1 1.7-1.8 2.3z"/><path fill="#005BAC" d="M16 32c-8.8 0-16 7.2-16 16s7.2 16 16 16 16-7.2 16-16-7.2-16-16-16zm8.1 12.8v.6c0 5.3-4.1 11.4-11.5 11.4-2.2 0-4.4-.6-6.2-1.8h1c1.9 0 3.6-.6 5-1.8-1.8 0-3.3-1.2-3.8-2.8.2.1.5.1.7.1.4 0 .7-.1 1-.2-1.8-.4-3.2-2-3.2-3.9v-.1c.6.3 1.2.5 1.8.5-1.1-.7-1.8-1.9-1.8-3.4 0-.7.2-1.4.6-2 2 2.4 5 4.1 8.3 4.2-.2-.3-.2-.6-.2-1 0-2.2 1.8-4 4-4 1.1 0 2.2.5 3 1.3.9-.2 1.8-.5 2.6-1-.3 1-1 1.8-1.8 2.2.8-.1 1.6-.3 2.3-.6-.4 1-1 1.7-1.8 2.3z"/><path d="M73.169 17.346h1.159v5.755h1.119v-5.755h1.158v-.98h-3.436zm6.875-4.781c.152 0 .272-.041.361-.123.089-.085.135-.201.135-.346v-2.982c0-.119-.046-.217-.137-.289-.091-.075-.211-.112-.358-.112-.136 0-.247.037-.333.112-.084.072-.127.17-.127.289v2.982c0 .15.039.265.119.346.079.083.193.123.341.123zm2.468 5.507c-.155 0-.307.039-.459.118-.148.079-.291.195-.425.346v-2.17h-1.004v6.735h1.004v-.381c.129.154.272.265.425.338.15.072.324.108.52.108.293 0 .52-.093.675-.28.156-.189.234-.458.234-.81v-2.758c0-.407-.082-.717-.249-.928-.165-.212-.405-.319-.72-.319zm-.055 3.867c0 .16-.029.273-.086.343-.058.071-.146.105-.268.105-.084 0-.162-.019-.24-.053-.076-.034-.155-.095-.235-.175v-3.095c.067-.07.136-.121.204-.152l.211-.05c.134 0 .237.043.31.128.07.088.104.214.104.383v2.566zm-3.573-.03c-.093.107-.195.194-.308.265-.112.07-.206.104-.277.104-.093 0-.161-.025-.204-.079-.04-.052-.062-.137-.062-.254v-3.812h-.993v4.155c0 .297.058.515.175.666.117.147.289.221.519.221.187 0 .379-.051.577-.157.199-.108.389-.26.573-.461v.544h.994v-4.968h-.994v3.775zm1.116-21.909c-8.836 0-16 7.164-16 16 0 8.838 7.164 16 16 16s16-7.162 16-16c0-8.836-7.164-16-16-16zm2.586 7.902h1.116v4.197c0 .131.025.223.072.28.046.058.122.089.227.089.082 0 .186-.039.312-.116.125-.079.24-.176.344-.297v-4.154h1.119v5.473h-1.119v-.604c-.204.222-.419.393-.643.509-.223.115-.438.175-.648.175-.26 0-.454-.083-.585-.246-.13-.161-.195-.405-.195-.733v-4.574zm-4.153 1.251c0-.423.15-.76.451-1.014.301-.249.706-.376 1.214-.376.463 0 .842.133 1.139.397.294.264.442.607.442 1.025v2.826c0 .47-.145.836-.433 1.102-.291.265-.69.398-1.198.398-.489 0-.881-.137-1.174-.41-.293-.277-.44-.647-.44-1.112v-2.838zm-3.046-3.197l.818 2.964h.079l.779-2.964h1.279l-1.465 4.341v3.077h-1.259v-2.94l-1.499-4.478h1.268zm14.645 15.615c0 1.98-1.605 3.586-3.586 3.586h-12.459c-1.981 0-3.586-1.607-3.586-3.586v-2.883c0-1.981 1.605-3.586 3.586-3.586h12.459c1.98 0 3.586 1.605 3.586 3.586v2.883zm-4.522-3.561c-.445 0-.806.134-1.087.407-.281.27-.423.623-.423 1.051v2.234c0 .48.129.855.384 1.127.255.273.606.41 1.051.41.495 0 .866-.128 1.114-.385.251-.259.374-.642.374-1.152v-.255h-1.021v.226c0 .293-.035.482-.099.567-.065.085-.181.128-.345.128-.159 0-.271-.05-.337-.15-.065-.103-.096-.283-.096-.546v-.935h1.898v-1.269c0-.47-.121-.83-.365-1.082-.244-.25-.593-.376-1.048-.376zm.393 1.954h-.878v-.503c0-.208.032-.359.102-.445.069-.093.182-.137.341-.137.15 0 .263.044.33.137.069.086.105.237.105.445v.503z" fill="#8C8C90"/><path d="M73.169 49.346h1.159v5.755h1.119v-5.755h1.158v-.98h-3.436zm6.875-4.781c.152 0 .272-.041.361-.123.089-.085.135-.201.135-.346v-2.982c0-.119-.046-.217-.137-.289-.091-.075-.211-.112-.358-.112-.136 0-.247.037-.333.112-.084.072-.127.17-.127.289v2.982c0 .15.039.265.119.346.079.083.193.123.341.123zm2.468 5.507c-.155 0-.307.039-.459.118-.148.079-.291.195-.425.346v-2.17h-1.004v6.735h1.004v-.381c.129.154.272.265.425.338.15.072.324.108.52.108.293 0 .52-.093.675-.28.156-.189.234-.458.234-.81v-2.758c0-.407-.082-.717-.249-.928-.165-.212-.405-.319-.72-.319zm-.055 3.867c0 .16-.029.273-.086.343-.058.071-.146.105-.268.105-.084 0-.162-.019-.24-.053-.076-.034-.155-.095-.235-.175v-3.095c.067-.07.136-.121.204-.152l.211-.05c.134 0 .237.043.31.128.07.088.104.214.104.383v2.566zm-3.573-.03c-.093.107-.195.194-.308.265-.112.07-.206.104-.277.104-.093 0-.161-.025-.204-.079-.04-.052-.062-.137-.062-.254v-3.812h-.993v4.155c0 .297.058.515.175.666.117.147.289.221.519.221.187 0 .379-.051.577-.157.199-.108.389-.26.573-.461v.544h.994v-4.968h-.994v3.775zm1.116-21.909c-8.836 0-16 7.164-16 16 0 8.838 7.164 16 16 16s16-7.162 16-16c0-8.836-7.164-16-16-16zm2.586 7.902h1.116v4.197c0 .131.025.223.072.28.046.058.122.089.227.089.082 0 .186-.039.312-.116.125-.079.24-.176.344-.297v-4.154h1.119v5.473h-1.119v-.604c-.204.222-.419.393-.643.509-.223.115-.438.175-.648.175-.26 0-.454-.083-.585-.246-.13-.161-.195-.405-.195-.733v-4.574zm-4.153 1.251c0-.423.15-.76.451-1.014.301-.249.706-.376 1.214-.376.463 0 .842.133 1.139.397.294.264.442.607.442 1.025v2.826c0 .47-.145.836-.433 1.102-.291.265-.69.398-1.198.398-.489 0-.881-.137-1.174-.41-.293-.277-.44-.647-.44-1.112v-2.838zm-3.046-3.197l.818 2.964h.079l.779-2.964h1.279l-1.465 4.341v3.077h-1.259v-2.94l-1.499-4.478h1.268zm14.645 15.615c0 1.98-1.605 3.586-3.586 3.586h-12.459c-1.981 0-3.586-1.607-3.586-3.586v-2.883c0-1.981 1.605-3.586 3.586-3.586h12.459c1.98 0 3.586 1.605 3.586 3.586v2.883zm-4.522-3.561c-.445 0-.806.134-1.087.407-.281.27-.423.623-.423 1.051v2.234c0 .48.129.855.384 1.127.255.273.606.41 1.051.41.495 0 .866-.128 1.114-.385.251-.259.374-.642.374-1.152v-.255h-1.021v.226c0 .293-.035.482-.099.567-.065.085-.181.128-.345.128-.159 0-.271-.05-.337-.15-.065-.103-.096-.283-.096-.546v-.935h1.898v-1.269c0-.47-.121-.83-.365-1.082-.244-.25-.593-.376-1.048-.376zm.393 1.954h-.878v-.503c0-.208.032-.359.102-.445.069-.093.182-.137.341-.137.15 0 .263.044.33.137.069.086.105.237.105.445v.503z" fill="#005BAC"/></svg>