<svg xmlns="http://www.w3.org/2000/svg" width="960" height="80" viewBox="0 0 960 80"><path d="M60 8h56v24h-56z" fill="none"/><path fill="#272732" d="M68.785 22.905c0 1.38.135 1.515 1.485 1.53v.39h-4.77v-.39c1.365-.015 1.5-.15 1.5-1.53v-8.774c-2.445.045-3.075.615-3.479 3.209l-.525-.03.285-3.57h9.209l.285 3.57-.525.03c-.42-2.595-1.035-3.165-3.465-3.209v8.774zm7.59-6.929c-.525-1.485-.765-1.74-1.725-1.86v-.375h4.545v.39c-.51.03-.585.045-.795.09-.27.075-.45.3-.45.585 0 .255.105.66.33 1.29l2.415 7.02 2.46-6.84c.225-.6.315-1.02.315-1.335 0-.54-.375-.765-1.38-.825v-.375h3.765v.39c-.555.045-.825.15-1.14.465s-.645.915-.96 1.785l-3.105 8.505h-1.11l-3.165-8.91zm19.439 1.41c-.15-.975-.36-1.545-.765-2.115-.63-.84-1.545-1.335-2.52-1.335-1.005 0-1.92.525-2.43 1.365-.57.96-.87 2.25-.87 3.81 0 3.27 1.41 5.325 3.63 5.325 1.605 0 2.91-1.005 3.584-2.745l.435.21c-.78 2.115-2.25 3.15-4.47 3.15-1.425 0-2.715-.51-3.615-1.425-.975-1.005-1.5-2.46-1.5-4.23 0-3.54 2.055-5.88 5.16-5.88.6 0 1.215.09 1.89.3.87.255.885.255 1.185.255.24 0 .33-.03.81-.21v3.525h-.525zm5.476 4.514c0 1.2.06 1.725.255 2.025.21.36.525.495 1.2.525v.375h-3.555v-.375c1.215-.06 1.485-.54 1.485-2.55v-6.255c0-.795-.075-1.095-.285-1.305-.195-.15-.36-.195-.96-.225v-.375h3.315l3.39 8.609 3.39-8.609h3.195v.375c-1.155.06-1.245.18-1.245 1.56v7.229c0 1.365.105 1.5 1.29 1.545v.375h-4.29v-.375c1.155-.045 1.275-.18 1.275-1.545v-8.25l-3.885 9.944h-.72l-3.855-9.854v7.155z"/><path d="M148 8h88v24h-88z" fill="none"/><path fill="#272732" d="M150.171 20.505c1.29-1.05 2.73-2.76 3.75-4.44.495-.795.675-1.2.675-1.5 0-.195-.06-.33-.225-.51-.195-.225-.24-.255-.675-.495.165-.06.21-.075.405-.075.42 0 1.185.315 1.71.705.33.24.495.465.495.69 0 .195-.015.24-.42.765-.015.015-.195.255-.405.555l.36.045c.285 0 1.17-.135 1.77-.255.51-.105.63-.15 1.035-.36.135-.075.195-.09.285-.09.465 0 1.47.96 1.47 1.395 0 .165-.075.285-.27.45-.3.225-.33.285-.765 1.005-1.575 2.655-2.94 4.2-4.98 5.655-1.305.93-2.52 1.56-3.9 1.995l-.09-.18c1.275-.705 2.115-1.335 3.375-2.49 1.905-1.755 3.345-3.689 4.395-5.91.195-.39.315-.72.315-.825 0-.045-.045-.075-.105-.075-.24 0-1.02.18-1.8.42-.24.06-.36.09-.465.09-.285 0-.585-.165-.915-.495-1.35 1.74-3.135 3.225-4.905 4.095l-.12-.165zm8.655-7.17c.765.24 1.32.465 1.815.795.51.315.72.6.72.975 0 .435-.195.78-.465.78-.18 0-.225-.06-.465-.465-.465-.81-.975-1.395-1.695-1.95l.09-.135zm1.335-.93c.735.12 1.245.285 1.845.615.525.285.72.54.72.975 0 .39-.18.69-.405.69-.15 0-.21-.06-.435-.405-.465-.735-.99-1.245-1.8-1.74l.075-.135zm8.416 13.41c1.515-1.155 2.52-2.175 3.51-3.51 1.155-1.575 2.01-3.165 2.43-4.56-1.74.195-2.7.36-4.125.72-.99.255-1.245.33-1.665.54-.21.105-.375.15-.525.15-.6 0-1.59-1.23-1.59-1.98 0-.105.015-.165.09-.315.375.645.825.93 1.47.93.585 0 3.165-.345 5.16-.69.87-.15.915-.15 1.245-.375.135-.075.225-.105.36-.105.18 0 .48.18.87.525.45.405.66.69.66.915 0 .165-.06.27-.27.435-.225.18-.33.33-.63.9-1.71 3.225-3.99 5.4-6.885 6.584l-.105-.165zm-.33-11.939c.57.585.99.78 1.635.78 1.065 0 2.775-.405 3.435-.825.135-.075.225-.105.345-.105.285 0 .78.21 1.11.465.24.18.33.33.33.51 0 .3-.21.405-1.14.54-1.515.225-2.865.36-3.51.36-1.095 0-1.68-.39-2.37-1.62l.165-.105zm14.31 11.684c1.245-.975 1.98-1.665 2.895-2.73 1.515-1.77 2.835-3.975 3.765-6.254.15-.375.27-.78.27-.93 0-.105-.09-.165-.285-.165-.435 0-1.77.255-3.03.57-1.155.3-1.86.54-2.52.87-.165.075-.375.135-.54.135-.375 0-.84-.375-1.275-1.005-.27-.405-.405-.75-.405-1.02 0-.12.015-.195.09-.36.315.63.795.93 1.515.93.615 0 2.04-.195 4.635-.645 1.2-.195 1.305-.225 1.68-.42.105-.06.24-.105.33-.105.195 0 .645.27 1.05.63.48.435.72.78.72 1.02 0 .18-.06.3-.24.495-.24.24-.315.345-.6.9-1.32 2.58-2.729 4.5-4.395 5.97-1.095.975-1.95 1.53-3.555 2.295l-.105-.18zm12.526-2.82c1.74-1.035 3.285-2.28 4.845-3.915 1.02-1.065 1.53-1.77 1.53-2.1 0-.315-.195-.555-.72-.855.135-.045.195-.06.315-.06.375 0 .87.21 1.5.66.405.285.585.51.585.72s-.06.315-.285.48c-.18.12-.18.12-.75.675-.645.615-1.05.96-1.83 1.635.735.54.81.675.81 1.35 0 .885.03 1.695.06 2.955.03.465.03.735.03.945 0 .54-.135.78-.435.78-.45 0-1.065-.735-1.065-1.26 0-.075.015-.15.06-.3.18-.555.285-1.74.285-3.015 0-.69-.03-.9-.165-1.125-1.425 1.14-2.82 1.92-4.68 2.61l-.09-.18zm14.369-4.994c1.11.54 1.545.81 1.92 1.185.315.315.42.54.42.885 0 .51-.315.99-.675.99-.18 0-.315-.135-.435-.48-.39-1.125-.69-1.695-1.35-2.459l.12-.12zm1.515 7.859c1.605-1.215 2.85-2.595 4.005-4.47.765-1.245 1.395-2.655 1.395-3.165 0-.36-.195-.585-.795-.87.15-.09.21-.105.345-.105.45 0 1.08.255 1.65.66.33.24.48.435.48.66 0 .165-.015.21-.21.42-.12.135-.3.42-.555.855-.93 1.635-1.35 2.265-2.16 3.18-1.2 1.365-2.475 2.325-4.02 3.015l-.135-.18zm1.185-8.475c.75.315 1.2.555 1.604.9.405.345.555.615.555 1.02 0 .525-.345 1.035-.705 1.035-.195 0-.315-.135-.405-.465-.39-1.32-.6-1.74-1.17-2.355l.12-.135zm11.221 3.15c1.29-1.05 2.729-2.745 3.75-4.425.495-.795.675-1.215.675-1.515 0-.195-.06-.315-.225-.51-.195-.225-.24-.255-.675-.48.165-.075.225-.09.345-.09.42 0 1.05.225 1.59.585.45.285.675.555.675.81 0 .21-.015.24-.42.765l-.405.555.36.045c.3 0 1.17-.12 1.77-.255.495-.105.63-.15 1.035-.36.135-.075.195-.09.285-.09.21 0 .555.21.93.555.375.36.54.63.54.84 0 .165-.075.285-.27.45-.3.24-.345.3-.765 1.005-1.545 2.64-2.94 4.215-4.98 5.655-1.305.945-2.52 1.56-3.899 1.995l-.09-.18c1.275-.705 2.1-1.32 3.375-2.49 1.89-1.74 3.36-3.705 4.395-5.91.18-.39.315-.72.315-.825 0-.045-.045-.075-.105-.075-.24 0-1.05.18-1.8.42-.24.06-.345.09-.465.09-.285 0-.6-.165-.915-.495-1.35 1.74-3.15 3.24-4.905 4.095l-.12-.165z"/><path d="M268 8h80v24h-80z" fill="none"/><path fill="#272732" d="M273.154 16.576c1.35.525 2.535 1.11 3.81 1.905 1.065-1.68 1.755-3.135 1.755-3.72 0-.465-.285-.825-.93-1.17.135-.09.21-.105.33-.105.945 0 2.58 1.095 2.58 1.74 0 .195-.045.27-.33.555-.285.27-.3.285-1.35 2.01l-.675 1.035-.24.375c1.65 1.2 1.995 1.62 1.995 2.445 0 .615-.255 1.08-.585 1.08-.165 0-.3-.105-.51-.435-.57-.855-.975-1.35-1.665-2.07-1.23 1.605-1.995 2.4-3.21 3.375-1.125.9-1.935 1.38-3.45 2.07l-.12-.195c2.22-1.635 4.02-3.54 5.865-6.18-1.125-1.005-2.28-1.875-3.39-2.55l.12-.165zm12.855 5.309c1.8-1.02 3.795-2.565 5.61-4.38.945-.945 1.71-1.83 2.175-2.505.225-.345.315-.54.315-.735 0-.315-.315-.66-.87-.945.18-.045.24-.06.405-.06.435 0 .855.135 1.38.45.645.39 1.05.825 1.05 1.155 0 .225-.06.3-.6.72-.075.045-.075.045-1.065.975-1.08 1.02-1.08 1.02-1.995 1.8.765.51 1.02.795 1.08 1.14.015.105.06 1.38.12 3.795 0 .285.015.645.03 1.095.015.27.015.48.015.645 0 .615-.165.885-.51.885-.495 0-1.26-.885-1.26-1.439 0-.135.015-.21.09-.45.165-.555.3-2.19.3-3.84 0-.945-.045-1.125-.315-1.455-2.205 1.71-3.93 2.685-5.865 3.33l-.09-.18zm16.515-5.28c.585.375 1.095.525 1.695.525.555 0 1.59-.21 2.49-.51-.27-1.14-.51-1.92-.735-2.295-.255-.42-.555-.57-1.32-.645.27-.24.525-.315 1.035-.315.435 0 1.035.09 1.455.225.465.135.615.315.615.69l-.015.195c-.06.3-.06.3-.06.525 0 .375.015.525.135 1.275 1.125-.42 1.635-.675 2.025-.99.225-.165.315-.21.51-.21.255 0 .57.075.825.195.255.105.375.255.375.435 0 .24-.21.405-.795.615-.555.195-1.95.645-2.775.885.18.93.24 1.2.48 2.235 1.95-.525 2.565-.735 3.045-1.035.285-.18.36-.21.525-.21.33 0 .855.15 1.23.36.24.15.345.285.345.495 0 .15-.12.285-.3.345-.135.06-.165.06-.915.12-.945.075-2.67.39-3.75.69.495 1.965.825 3.3 1.02 3.975.165.6.195.795.195 1.065 0 .435-.18.675-.495.675-.465 0-1.335-.93-1.335-1.439l.015-.21c.03-.21.03-.27.03-.435 0-.66-.135-1.62-.48-3.315-1.17.345-2.475.87-3.06 1.215-.39.24-.51.3-.69.3-.66 0-1.755-1.065-1.755-1.695l.03-.225c.39.435.825.66 1.275.66.375 0 .855-.105 1.89-.405.36-.12 1.08-.33 2.16-.63-.24-1.11-.375-1.695-.525-2.25-1.2.315-1.725.42-2.25.42-.855 0-1.59-.375-2.25-1.17l.105-.135zm16.08-1.694c1.605.3 2.475.585 3.135 1.02.45.3.66.675.66 1.185 0 .645-.285 1.11-.675 1.11-.21 0-.33-.105-.54-.435-.81-1.29-1.485-1.965-2.67-2.715l.09-.165zm11.13.87c-.81 1.62-1.8 2.955-3.3 4.425-1.35 1.335-2.354 2.13-4.305 3.42-.45.3-.69.495-.825.66-.225.27-.375.375-.585.375-.75 0-2.04-1.62-2.04-2.55 0-.12.015-.195.075-.36.405.66.87 1.05 1.245 1.05.6 0 2.625-1.11 4.35-2.385 2.19-1.605 3.9-3.18 5.19-4.74l.195.105zm3.691 4.724c1.29-1.05 2.73-2.76 3.75-4.44.495-.795.675-1.2.675-1.5 0-.195-.06-.33-.225-.51-.195-.225-.24-.255-.675-.495.165-.06.21-.075.405-.075.42 0 1.185.315 1.71.705.33.24.495.465.495.69 0 .195-.015.24-.42.765-.015.015-.195.255-.405.555l.36.045c.285 0 1.17-.135 1.77-.255.51-.105.63-.15 1.035-.36.135-.075.195-.09.285-.09.465 0 1.47.96 1.47 1.395 0 .165-.075.285-.27.45-.3.225-.33.285-.765 1.005-1.575 2.655-2.94 4.2-4.98 5.655-1.305.93-2.52 1.56-3.9 1.995l-.09-.18c1.275-.705 2.115-1.335 3.375-2.49 1.905-1.755 3.345-3.689 4.395-5.91.195-.39.315-.72.315-.825 0-.045-.045-.075-.105-.075-.24 0-1.02.18-1.8.42-.24.06-.36.09-.465.09-.285 0-.585-.165-.915-.495-1.35 1.74-3.135 3.225-4.905 4.095l-.12-.165zm8.655-7.17c.765.24 1.32.465 1.815.795.51.315.72.6.72.975 0 .435-.195.78-.465.78-.18 0-.225-.06-.465-.465-.465-.81-.975-1.395-1.695-1.95l.09-.135zm1.335-.93c.735.12 1.245.285 1.845.615.525.285.72.54.72.975 0 .39-.18.69-.405.69-.15 0-.21-.06-.435-.405-.465-.735-.99-1.245-1.8-1.74l.075-.135z"/><path d="M380 8h96v24h-96z" fill="none"/><path fill="#272732" d="M380.824 25.11c1.41-.87 3.06-2.265 4.305-3.645.9-.99 2.01-2.49 2.805-3.765.435-.72.69-1.2.975-1.875-1.08.105-3.285.705-4.095 1.095-.3.15-.36.165-.525.165-.36 0-.735-.33-1.11-.96-.24-.405-.36-.75-.36-1.035 0-.135.015-.195.105-.345.435.75.81 1.005 1.485 1.005.51 0 1.935-.195 3.24-.465.96-.18 1.095-.225 1.44-.45.165-.105.24-.135.375-.135.21 0 .6.24.99.6.3.3.45.51.45.69 0 .135-.06.225-.225.345-.33.24-.345.27-.87 1.065-.795 1.23-1.02 1.545-1.89 2.64 1.98.93 3.225 1.665 3.9 2.34.42.435.6.87.6 1.47 0 .675-.27 1.155-.66 1.155-.225 0-.39-.15-.57-.54-.78-1.575-1.92-2.895-3.51-4.095-1.26 1.485-2.25 2.385-3.6 3.314-1.035.705-1.755 1.065-3.165 1.605l-.09-.18zm16.441-4.41c.99-1.14 1.755-2.28 2.475-3.689.675-1.335 1.035-2.235 1.035-2.655 0-.45-.345-.795-1.02-1.05.18-.09.27-.12.45-.12.405 0 .945.165 1.545.48.54.285.825.555.825.81 0 .195-.015.24-.33.66l-.24.405c-.18.315-.675 1.125-.87 1.425.195.15.39.21.75.21.645 0 1.875-.21 3.33-.57 1.14-.285 1.485-.405 2.01-.705.09-.045.225-.075.345-.075.21 0 .615.135.96.33.39.21.555.39.555.615 0 .21-.105.345-.315.405-.135.03-.165.045-.87.12-.645.075-1.125.135-1.725.21-.945.15-1.065.165-1.56.21.72.405 1.02.72 1.02 1.035 0 .24-.18.825-.435 1.5-.69 1.725-1.74 3.27-2.94 4.29-.675.585-1.305 1.005-2.189 1.44l-.135-.135c1.245-1.095 2.16-2.28 2.985-3.855.72-1.395 1.185-2.79 1.185-3.57 0-.255-.075-.39-.3-.615-.735.075-1.065.105-1.545.105-.675 0-.99-.12-1.38-.555-1.02 1.47-2.19 2.64-3.495 3.48l-.12-.135zm16.889-3.179c1.2.15 2.325.465 2.88.825.435.27.615.585.615 1.065 0 .51-.27.915-.615.915-.225 0-.315-.075-.555-.435-.255-.375-.78-.96-1.14-1.305-.36-.33-.69-.57-1.26-.9l.075-.165zm11.939-.48c-.48.81-1.2 1.725-2.13 2.7-1.56 1.635-3.33 3.045-5.745 4.56-.735.465-.96.63-1.2.87-.12.105-.27.18-.405.18-.675 0-1.86-1.56-1.86-2.43 0-.15.03-.27.12-.42.315.615.81 1.035 1.245 1.035.42 0 1.485-.495 3.105-1.47 2.61-1.56 4.935-3.33 6.72-5.145l.15.12zm-10.259-2.31c1.485.225 2.355.495 2.94.9.39.27.555.585.555 1.035 0 .51-.27.93-.615.93-.21 0-.285-.06-.57-.495-.615-.915-1.455-1.695-2.4-2.205l.09-.165zm6.3-.96c.9.345 1.395.6 1.905.975.375.285.54.57.54.945 0 .405-.21.72-.48.72-.15 0-.255-.09-.375-.33-.57-1.065-.87-1.455-1.68-2.19l.09-.12zm1.41-.975c.765.195 1.29.405 1.86.765.42.27.63.6.63 1.035 0 .36-.195.66-.435.66-.135 0-.225-.09-.375-.36-.405-.75-.96-1.365-1.77-1.965l.09-.135zm9.886 5.925c.495 0 1.515-.12 2.265-.285.42-.09.495-.105.72-.27.15-.105.225-.135.345-.135.24 0 .72.3 1.065.675.21.21.27.345.27.51 0 .12-.015.15-.21.39-.09.12-.18.375-.375 1.125-.495 1.875-.495 1.875-.615 2.415 1.755-.12 1.755-.12 2.13-.255.12-.045.18-.06.27-.06.135 0 .42.12.675.285.405.27.63.54.63.78 0 .255-.18.42-.42.42-.09 0-.24-.03-.465-.075-.78-.195-1.335-.255-2.355-.255-1.32 0-2.505.135-3.78.45-.69.165-.84.21-1.335.45-.195.09-.285.12-.435.12-.3 0-.66-.225-.96-.6-.3-.39-.54-.885-.54-1.14 0-.075.015-.15.075-.315.285.525.735.81 1.26.81.195 0 .645-.045 1.2-.135l2.1-.3c.555-.06.555-.06.84-.105.24-1.185.585-3.6.585-4.05 0-.09-.03-.135-.06-.135-.84.12-1.995.45-2.58.75-.09.045-.21.075-.315.075-.315 0-.615-.24-.885-.705-.195-.315-.3-.645-.3-.885 0-.09.015-.15.09-.33.27.54.615.78 1.11.78zm12.93-.151c.345.27.675.345 1.485.345.12 0 3.105-.06 6.12-.12.435-.015.915-.015 1.395-.015 1.605 0 1.98.045 2.235.225.12.09.195.225.195.375 0 .33-.255.54-.78.63-.585.105-1.02.12-6.9.195-.87.015-1.74.06-2.115.09-.225.03-.24.03-.555.165-.075.03-.225.06-.3.06-.345 0-.72-.33-1.065-.945-.3-.54-.45-.99-.45-1.335 0-.225.03-.315.165-.435.255.48.345.6.57.765zm15.735 6.39c.84-.84 1.44-1.755 2.04-3.12.54-1.245 1.005-3.225 1.005-4.29 0-.63-.3-.975-1.065-1.26.18-.135.255-.15.54-.15.345 0 .99.24 1.53.585.48.3.705.555.705.81 0 .15-.03.24-.165.54-.09.195-.09.195-.585 1.92-.45 1.5-1.23 2.85-2.16 3.794-.54.54-.975.87-1.71 1.32l-.135-.15zm13.439-6.435c-.6 1.08-.99 1.62-1.725 2.445-.6.66-1.05 1.095-1.845 1.74-.615.495-1.095.855-1.38 1.05-.375.255-.57.42-.81.66-.15.135-.255.195-.375.195-.465 0-1.17-.945-1.17-1.545 0-.09 0-.09.075-.285.135-.39.165-1.23.165-4.275 0-1.32-.06-2.715-.12-3.135-.09-.585-.42-.87-1.11-1.05.165-.18.27-.225.51-.225.435 0 1.05.195 1.635.51.525.27.765.54.765.81 0 .135-.015.21-.165.525-.075.165-.135.57-.195 1.275-.09.99-.24 4.11-.24 4.859v.51c1.89-.72 4.275-2.43 5.82-4.185l.165.12z"/><path d="M508 8h80v24h-80z" fill="none"/><path fill="#272732" d="M512.405 25.695c1.185-1.035 2.1-2.355 2.76-3.93.48-1.14.87-2.67.87-3.39 0-.45-.315-.78-.99-1.02.135-.135.27-.18.495-.18.525 0 1.725.57 2.13.99.69-.465 1.92-1.515 2.505-2.13.315-.345.435-.51.435-.63 0-.075-.09-.135-.24-.165l-.42-.015c-1.05 0-3.465.39-5.055.795-.78.21-1.125.33-1.845.69-.12.045-.285.09-.405.09-.345 0-.825-.375-1.215-.945-.27-.39-.465-.885-.465-1.17 0-.12.03-.24.09-.39.345.66.84.945 1.605.945.555 0 .675-.015 3.66-.375.51-.06.945-.105 1.245-.15 2.28-.255 2.28-.255 2.76-.45.09-.045.15-.06.225-.06.24 0 .495.135.96.51.705.6 1.155 1.155 1.155 1.455 0 .285-.15.42-.57.51-.345.09-.435.12-.75.285-1.23.615-1.755.855-3.645 1.635l-.225.735c-.615 2.055-1.32 3.39-2.4 4.545-.795.855-1.65 1.515-2.55 1.98l-.12-.165zm14.19-7.125c.345.27.675.345 1.485.345.12 0 3.105-.06 6.12-.12.435-.015.915-.015 1.395-.015 1.605 0 1.98.045 2.235.225.12.09.195.225.195.375 0 .33-.255.54-.78.63-.585.105-1.02.12-6.9.195-.87.015-1.74.06-2.115.09-.225.03-.24.03-.555.165-.075.03-.225.06-.3.06-.345 0-.72-.33-1.065-.945-.3-.54-.45-.99-.45-1.335 0-.225.03-.315.165-.435.255.48.345.6.57.765zm14.52 6.9c2.295-1.83 3.915-4.215 5.04-7.485-1.035.225-1.83.45-2.295.66-.195.09-.285.12-.405.12-.36 0-.81-.315-1.155-.825-.21-.3-.375-.735-.375-.975 0-.075.015-.15.06-.285.39.615.78.855 1.395.855.465 0 1.665-.15 3-.36.33-1.229.48-2.01.48-2.52 0-.525-.3-.84-1.11-1.185.195-.09.3-.105.525-.105.495 0 1.17.195 1.725.51.45.27.645.495.645.75 0 .135-.03.225-.165.465-.195.315-.27.555-.675 1.89.315-.045 1.5-.21 1.68-.24.6-.09.615-.09.9-.24.135-.075.21-.09.33-.09.255 0 .51.135.945.525.39.345.57.615.57.81 0 .105-.045.225-.135.375-.21.315-.21.315-.525 1.965-.57 2.985-.93 4.05-1.59 4.65-.405.375-.945.6-1.44.6-.285 0-.42-.135-.525-.495-.075-.33-.195-.48-.585-.765-.36-.27-.81-.54-1.395-.87l.075-.18c1.35.42 2.34.66 2.7.66.345 0 .525-.27.87-1.305.405-1.215.87-3.69.87-4.575 0-.3-.12-.435-.39-.435-.315 0-1.755.21-2.565.375-.9 2.7-1.92 4.425-3.54 5.939-.855.81-1.815 1.47-2.835 1.95l-.105-.165zm16.125-3.585c1.8-1.02 3.795-2.565 5.61-4.38.945-.945 1.71-1.83 2.175-2.505.225-.345.315-.54.315-.735 0-.315-.315-.66-.87-.945.18-.045.24-.06.405-.06.435 0 .855.135 1.38.45.645.39 1.05.825 1.05 1.155 0 .225-.06.3-.6.72-.075.045-.075.045-1.065.975-1.08 1.02-1.08 1.02-1.995 1.8.765.51 1.02.795 1.08 1.14.015.105.06 1.38.12 3.795 0 .285.015.645.03 1.095.015.27.015.48.015.645 0 .615-.165.885-.51.885-.495 0-1.26-.885-1.26-1.439 0-.135.015-.21.09-.45.165-.555.3-2.19.3-3.84 0-.945-.045-1.125-.315-1.455-2.205 1.71-3.93 2.685-5.865 3.33l-.09-.18zm17.115 4.035c1.245-.975 1.98-1.665 2.895-2.745 1.53-1.755 2.85-3.945 3.78-6.24.15-.375.27-.78.27-.93 0-.105-.09-.165-.285-.165-.435 0-1.755.255-3.045.57-1.155.3-1.845.54-2.505.87-.18.075-.39.135-.54.135-.39 0-.855-.375-1.29-1.02-.27-.405-.405-.735-.405-1.005 0-.12.015-.195.09-.375.33.645.81.945 1.53.945.585 0 2.115-.21 4.635-.645 1.215-.195 1.29-.225 1.68-.42.105-.06.24-.105.33-.105.195 0 .645.27 1.05.63.465.42.72.78.72 1.02 0 .18-.06.3-.255.495-.21.225-.3.36-.585.9-1.335 2.595-2.73 4.485-4.41 5.97-1.08.975-1.935 1.515-3.54 2.28l-.12-.165zm7.605-12.569c1.845.585 2.58 1.11 2.58 1.83 0 .375-.18.66-.435.66-.12 0-.24-.105-.36-.315-.585-.93-.96-1.35-1.875-2.025l.09-.15zm1.305-1.02c.855.18 1.545.435 1.995.72.36.225.6.615.6.975 0 .315-.165.57-.39.57-.135 0-.18-.045-.435-.435-.39-.63-.885-1.065-1.845-1.68l.075-.15z"/><path d="M508 48h80v24h-80z" fill="none"/><path fill="#005BAC" d="M512.405 65.695c1.185-1.035 2.1-2.355 2.76-3.93.48-1.14.87-2.67.87-3.39 0-.45-.315-.78-.99-1.02.135-.135.27-.18.495-.18.525 0 1.725.57 2.13.99.69-.465 1.92-1.515 2.505-2.13.315-.345.435-.51.435-.63 0-.075-.09-.135-.24-.165l-.42-.015c-1.05 0-3.465.39-5.055.795-.78.21-1.125.33-1.845.69-.12.045-.285.09-.405.09-.345 0-.825-.375-1.215-.945-.27-.39-.465-.885-.465-1.17 0-.12.03-.24.09-.39.345.66.84.945 1.605.945.555 0 .675-.015 3.66-.375.51-.06.945-.105 1.245-.15 2.28-.255 2.28-.255 2.76-.45.09-.045.15-.06.225-.06.24 0 .495.135.96.51.705.6 1.155 1.155 1.155 1.455 0 .285-.15.42-.57.51-.345.09-.435.12-.75.285-1.23.615-1.755.855-3.645 1.635l-.225.735c-.615 2.055-1.32 3.39-2.4 4.545-.795.855-1.65 1.515-2.55 1.98l-.12-.165zm14.19-7.125c.345.27.675.345 1.485.345.12 0 3.105-.06 6.12-.12.435-.015.915-.015 1.395-.015 1.605 0 1.98.045 2.235.225.12.09.195.225.195.375 0 .33-.255.54-.78.63-.585.105-1.02.12-6.9.195-.87.015-1.74.06-2.115.09-.225.03-.24.03-.555.165-.075.03-.225.06-.3.06-.345 0-.72-.33-1.065-.945-.3-.54-.45-.99-.45-1.335 0-.225.03-.315.165-.435.255.48.345.6.57.765zm14.52 6.9c2.295-1.83 3.915-4.215 5.04-7.485-1.035.225-1.83.45-2.295.66-.195.09-.285.12-.405.12-.36 0-.81-.315-1.155-.825-.21-.3-.375-.735-.375-.975 0-.075.015-.15.06-.285.39.615.78.855 1.395.855.465 0 1.665-.15 3-.36.33-1.229.48-2.01.48-2.52 0-.525-.3-.84-1.11-1.185.195-.09.3-.105.525-.105.495 0 1.17.195 1.725.51.45.27.645.495.645.75 0 .135-.03.225-.165.465-.195.315-.27.555-.675 1.89.315-.045 1.5-.21 1.68-.24.6-.09.615-.09.9-.24.135-.075.21-.09.33-.09.255 0 .51.135.945.525.39.345.57.615.57.81 0 .105-.045.225-.135.375-.21.315-.21.315-.525 1.965-.57 2.985-.93 4.05-1.59 4.65-.405.375-.945.6-1.44.6-.285 0-.42-.135-.525-.495-.075-.33-.195-.48-.585-.765-.36-.27-.81-.54-1.395-.87l.075-.18c1.35.42 2.34.66 2.7.66.345 0 .525-.27.87-1.305.405-1.215.87-3.69.87-4.575 0-.3-.12-.435-.39-.435-.315 0-1.755.21-2.565.375-.9 2.7-1.92 4.425-3.54 5.939-.855.81-1.815 1.47-2.835 1.95l-.105-.165zm16.125-3.585c1.8-1.02 3.795-2.565 5.61-4.38.945-.945 1.71-1.83 2.175-2.505.225-.345.315-.54.315-.735 0-.315-.315-.66-.87-.945.18-.045.24-.06.405-.06.435 0 .855.135 1.38.45.645.39 1.05.825 1.05 1.155 0 .225-.06.3-.6.72-.075.045-.075.045-1.065.975-1.08 1.02-1.08 1.02-1.995 1.8.765.51 1.02.795 1.08 1.14.015.105.06 1.38.12 3.795 0 .285.015.645.03 1.095.015.27.015.48.015.645 0 .615-.165.885-.51.885-.495 0-1.26-.885-1.26-1.439 0-.135.015-.21.09-.45.165-.555.3-2.19.3-3.84 0-.945-.045-1.125-.315-1.455-2.205 1.71-3.93 2.685-5.865 3.33l-.09-.18zm17.115 4.035c1.245-.975 1.98-1.665 2.895-2.745 1.53-1.755 2.85-3.945 3.78-6.24.15-.375.27-.78.27-.93 0-.105-.09-.165-.285-.165-.435 0-1.755.255-3.045.57-1.155.3-1.845.54-2.505.87-.18.075-.39.135-.54.135-.39 0-.855-.375-1.29-1.02-.27-.405-.405-.735-.405-1.005 0-.12.015-.195.09-.375.33.645.81.945 1.53.945.585 0 2.115-.21 4.635-.645 1.215-.195 1.29-.225 1.68-.42.105-.06.24-.105.33-.105.195 0 .645.27 1.05.63.465.42.72.78.72 1.02 0 .18-.06.3-.255.495-.21.225-.3.36-.585.9-1.335 2.595-2.73 4.485-4.41 5.97-1.08.975-1.935 1.515-3.54 2.28l-.12-.165zm7.605-12.569c1.845.585 2.58 1.11 2.58 1.83 0 .375-.18.66-.435.66-.12 0-.24-.105-.36-.315-.585-.93-.96-1.35-1.875-2.025l.09-.15zm1.305-1.02c.855.18 1.545.435 1.995.72.36.225.6.615.6.975 0 .315-.165.57-.39.57-.135 0-.18-.045-.435-.435-.39-.63-.885-1.065-1.845-1.68l.075-.15z"/><path d="M60 48h56v24h-56z" fill="none"/><path fill="#005BAC" d="M68.785 62.905c0 1.38.135 1.515 1.485 1.53v.39h-4.77v-.39c1.365-.015 1.5-.15 1.5-1.53v-8.774c-2.445.045-3.075.615-3.479 3.209l-.525-.03.285-3.57h9.209l.285 3.57-.525.03c-.42-2.595-1.035-3.165-3.465-3.209v8.774zm7.59-6.929c-.525-1.485-.765-1.74-1.725-1.86v-.375h4.545v.39c-.51.03-.585.045-.795.09-.27.075-.45.3-.45.585 0 .255.105.66.33 1.29l2.415 7.02 2.46-6.84c.225-.6.315-1.02.315-1.335 0-.54-.375-.765-1.38-.825v-.375h3.765v.39c-.555.045-.825.15-1.14.465s-.645.915-.96 1.785l-3.105 8.505h-1.11l-3.165-8.91zm19.439 1.41c-.15-.975-.36-1.545-.765-2.115-.63-.84-1.545-1.335-2.52-1.335-1.005 0-1.92.525-2.43 1.365-.57.96-.87 2.25-.87 3.81 0 3.27 1.41 5.325 3.63 5.325 1.605 0 2.91-1.005 3.584-2.745l.435.21c-.78 2.115-2.25 3.15-4.47 3.15-1.425 0-2.715-.51-3.615-1.425-.975-1.005-1.5-2.46-1.5-4.23 0-3.54 2.055-5.88 5.16-5.88.6 0 1.215.09 1.89.3.87.255.885.255 1.185.255.24 0 .33-.03.81-.21v3.525h-.525zm5.476 4.514c0 1.2.06 1.725.255 2.025.21.36.525.495 1.2.525v.375h-3.555v-.375c1.215-.06 1.485-.54 1.485-2.55v-6.255c0-.795-.075-1.095-.285-1.305-.195-.15-.36-.195-.96-.225v-.375h3.315l3.39 8.609 3.39-8.609h3.195v.375c-1.155.06-1.245.18-1.245 1.56v7.229c0 1.365.105 1.5 1.29 1.545v.375h-4.29v-.375c1.155-.045 1.275-.18 1.275-1.545v-8.25l-3.885 9.944h-.72l-3.855-9.854v7.155z"/><path d="M148 48h88v24h-88z" fill="none"/><path fill="#005BAC" d="M150.171 60.505c1.29-1.05 2.73-2.76 3.75-4.44.495-.795.675-1.2.675-1.5 0-.195-.06-.33-.225-.51-.195-.225-.24-.255-.675-.495.165-.06.21-.075.405-.075.42 0 1.185.315 1.71.705.33.24.495.465.495.69 0 .195-.015.24-.42.765-.015.015-.195.255-.405.555l.36.045c.285 0 1.17-.135 1.77-.255.51-.105.63-.15 1.035-.36.135-.075.195-.09.285-.09.465 0 1.47.96 1.47 1.395 0 .165-.075.285-.27.45-.3.225-.33.285-.765 1.005-1.575 2.655-2.94 4.2-4.98 5.655-1.305.93-2.52 1.56-3.9 1.995l-.09-.18c1.275-.705 2.115-1.335 3.375-2.49 1.905-1.755 3.345-3.689 4.395-5.91.195-.39.315-.72.315-.825 0-.045-.045-.075-.105-.075-.24 0-1.02.18-1.8.42-.24.06-.36.09-.465.09-.285 0-.585-.165-.915-.495-1.35 1.74-3.135 3.225-4.905 4.095l-.12-.165zm8.655-7.17c.765.24 1.32.465 1.815.795.51.315.72.6.72.975 0 .435-.195.78-.465.78-.18 0-.225-.06-.465-.465-.465-.81-.975-1.395-1.695-1.95l.09-.135zm1.335-.93c.735.12 1.245.285 1.845.615.525.285.72.54.72.975 0 .39-.18.69-.405.69-.15 0-.21-.06-.435-.405-.465-.735-.99-1.245-1.8-1.74l.075-.135zm8.416 13.41c1.515-1.155 2.52-2.175 3.51-3.51 1.155-1.575 2.01-3.165 2.43-4.56-1.74.195-2.7.36-4.125.72-.99.255-1.245.33-1.665.54-.21.105-.375.15-.525.15-.6 0-1.59-1.23-1.59-1.98 0-.105.015-.165.09-.315.375.645.825.93 1.47.93.585 0 3.165-.345 5.16-.69.87-.15.915-.15 1.245-.375.135-.075.225-.105.36-.105.18 0 .48.18.87.525.45.405.66.69.66.915 0 .165-.06.27-.27.435-.225.18-.33.33-.63.9-1.71 3.225-3.99 5.4-6.885 6.584l-.105-.165zm-.33-11.939c.57.585.99.78 1.635.78 1.065 0 2.775-.405 3.435-.825.135-.075.225-.105.345-.105.285 0 .78.21 1.11.465.24.18.33.33.33.51 0 .3-.21.405-1.14.54-1.515.225-2.865.36-3.51.36-1.095 0-1.68-.39-2.37-1.62l.165-.105zm14.31 11.684c1.245-.975 1.98-1.665 2.895-2.73 1.515-1.77 2.835-3.975 3.765-6.254.15-.375.27-.78.27-.93 0-.105-.09-.165-.285-.165-.435 0-1.77.255-3.03.57-1.155.3-1.86.54-2.52.87-.165.075-.375.135-.54.135-.375 0-.84-.375-1.275-1.005-.27-.405-.405-.75-.405-1.02 0-.12.015-.195.09-.36.315.63.795.93 1.515.93.615 0 2.04-.195 4.635-.645 1.2-.195 1.305-.225 1.68-.42.105-.06.24-.105.33-.105.195 0 .645.27 1.05.63.48.435.72.78.72 1.02 0 .18-.06.3-.24.495-.24.24-.315.345-.6.9-1.32 2.58-2.729 4.5-4.395 5.97-1.095.975-1.95 1.53-3.555 2.295l-.105-.18zm12.526-2.82c1.74-1.035 3.285-2.28 4.845-3.915 1.02-1.065 1.53-1.77 1.53-2.1 0-.315-.195-.555-.72-.855.135-.045.195-.06.315-.06.375 0 .87.21 1.5.66.405.285.585.51.585.72s-.06.315-.285.48c-.18.12-.18.12-.75.675-.645.615-1.05.96-1.83 1.635.735.54.81.675.81 1.35 0 .885.03 1.695.06 2.955.03.465.03.735.03.945 0 .54-.135.78-.435.78-.45 0-1.065-.735-1.065-1.26 0-.075.015-.15.06-.3.18-.555.285-1.74.285-3.015 0-.69-.03-.9-.165-1.125-1.425 1.14-2.82 1.92-4.68 2.61l-.09-.18zm14.369-4.994c1.11.54 1.545.81 1.92 1.185.315.315.42.54.42.885 0 .51-.315.99-.675.99-.18 0-.315-.135-.435-.48-.39-1.125-.69-1.695-1.35-2.459l.12-.12zm1.515 7.859c1.605-1.215 2.85-2.595 4.005-4.47.765-1.245 1.395-2.655 1.395-3.165 0-.36-.195-.585-.795-.87.15-.09.21-.105.345-.105.45 0 1.08.255 1.65.66.33.24.48.435.48.66 0 .165-.015.21-.21.42-.12.135-.3.42-.555.855-.93 1.635-1.35 2.265-2.16 3.18-1.2 1.365-2.475 2.325-4.02 3.015l-.135-.18zm1.185-8.475c.75.315 1.2.555 1.604.9.405.345.555.615.555 1.02 0 .525-.345 1.035-.705 1.035-.195 0-.315-.135-.405-.465-.39-1.32-.6-1.74-1.17-2.355l.12-.135zm11.221 3.15c1.29-1.05 2.729-2.745 3.75-4.425.495-.795.675-1.215.675-1.515 0-.195-.06-.315-.225-.51-.195-.225-.24-.255-.675-.48.165-.075.225-.09.345-.09.42 0 1.05.225 1.59.585.45.285.675.555.675.81 0 .21-.015.24-.42.765l-.405.555.36.045c.3 0 1.17-.12 1.77-.255.495-.105.63-.15 1.035-.36.135-.075.195-.09.285-.09.21 0 .555.21.93.555.375.36.54.63.54.84 0 .165-.075.285-.27.45-.3.24-.345.3-.765 1.005-1.545 2.64-2.94 4.215-4.98 5.655-1.305.945-2.52 1.56-3.899 1.995l-.09-.18c1.275-.705 2.1-1.32 3.375-2.49 1.89-1.74 3.36-3.705 4.395-5.91.18-.39.315-.72.315-.825 0-.045-.045-.075-.105-.075-.24 0-1.05.18-1.8.42-.24.06-.345.09-.465.09-.285 0-.6-.165-.915-.495-1.35 1.74-3.15 3.24-4.905 4.095l-.12-.165z"/><path d="M268 48h80v24h-80z" fill="none"/><path fill="#005BAC" d="M273.154 56.576c1.35.525 2.535 1.11 3.81 1.905 1.065-1.68 1.755-3.135 1.755-3.72 0-.465-.285-.825-.93-1.17.135-.09.21-.105.33-.105.945 0 2.58 1.095 2.58 1.74 0 .195-.045.27-.33.555-.285.27-.3.285-1.35 2.01l-.675 1.035-.24.375c1.65 1.2 1.995 1.62 1.995 2.445 0 .615-.255 1.08-.585 1.08-.165 0-.3-.105-.51-.435-.57-.855-.975-1.35-1.665-2.07-1.23 1.605-1.995 2.4-3.21 3.375-1.125.9-1.935 1.38-3.45 2.07l-.12-.195c2.22-1.635 4.02-3.54 5.865-6.18-1.125-1.005-2.28-1.875-3.39-2.55l.12-.165zm12.855 5.309c1.8-1.02 3.795-2.565 5.61-4.38.945-.945 1.71-1.83 2.175-2.505.225-.345.315-.54.315-.735 0-.315-.315-.66-.87-.945.18-.045.24-.06.405-.06.435 0 .855.135 1.38.45.645.39 1.05.825 1.05 1.155 0 .225-.06.3-.6.72-.075.045-.075.045-1.065.975-1.08 1.02-1.08 1.02-1.995 1.8.765.51 1.02.795 1.08 1.14.015.105.06 1.38.12 3.795 0 .285.015.645.03 1.095.015.27.015.48.015.645 0 .615-.165.885-.51.885-.495 0-1.26-.885-1.26-1.439 0-.135.015-.21.09-.45.165-.555.3-2.19.3-3.84 0-.945-.045-1.125-.315-1.455-2.205 1.71-3.93 2.685-5.865 3.33l-.09-.18zm16.515-5.28c.585.375 1.095.525 1.695.525.555 0 1.59-.21 2.49-.51-.27-1.14-.51-1.92-.735-2.295-.255-.42-.555-.57-1.32-.645.27-.24.525-.315 1.035-.315.435 0 1.035.09 1.455.225.465.135.615.315.615.69l-.015.195c-.06.3-.06.3-.06.525 0 .375.015.525.135 1.275 1.125-.42 1.635-.675 2.025-.99.225-.165.315-.21.51-.21.255 0 .57.075.825.195.255.105.375.255.375.435 0 .24-.21.405-.795.615-.555.195-1.95.645-2.775.885.18.93.24 1.2.48 2.235 1.95-.525 2.565-.735 3.045-1.035.285-.18.36-.21.525-.21.33 0 .855.15 1.23.36.24.15.345.285.345.495 0 .15-.12.285-.3.345-.135.06-.165.06-.915.12-.945.075-2.67.39-3.75.69.495 1.965.825 3.3 1.02 3.975.165.6.195.795.195 1.065 0 .435-.18.675-.495.675-.465 0-1.335-.93-1.335-1.439l.015-.21c.03-.21.03-.27.03-.435 0-.66-.135-1.62-.48-3.315-1.17.345-2.475.87-3.06 1.215-.39.24-.51.3-.69.3-.66 0-1.755-1.065-1.755-1.695l.03-.225c.39.435.825.66 1.275.66.375 0 .855-.105 1.89-.405.36-.12 1.08-.33 2.16-.63-.24-1.11-.375-1.695-.525-2.25-1.2.315-1.725.42-2.25.42-.855 0-1.59-.375-2.25-1.17l.105-.135zm16.08-1.694c1.605.3 2.475.585 3.135 1.02.45.3.66.675.66 1.185 0 .645-.285 1.11-.675 1.11-.21 0-.33-.105-.54-.435-.81-1.29-1.485-1.965-2.67-2.715l.09-.165zm11.13.87c-.81 1.62-1.8 2.955-3.3 4.425-1.35 1.335-2.354 2.13-4.305 3.42-.45.3-.69.495-.825.66-.225.27-.375.375-.585.375-.75 0-2.04-1.62-2.04-2.55 0-.12.015-.195.075-.36.405.66.87 1.05 1.245 1.05.6 0 2.625-1.11 4.35-2.385 2.19-1.605 3.9-3.18 5.19-4.74l.195.105zm3.691 4.724c1.29-1.05 2.73-2.76 3.75-4.44.495-.795.675-1.2.675-1.5 0-.195-.06-.33-.225-.51-.195-.225-.24-.255-.675-.495.165-.06.21-.075.405-.075.42 0 1.185.315 1.71.705.33.24.495.465.495.69 0 .195-.015.24-.42.765-.015.015-.195.255-.405.555l.36.045c.285 0 1.17-.135 1.77-.255.51-.105.63-.15 1.035-.36.135-.075.195-.09.285-.09.465 0 1.47.96 1.47 1.395 0 .165-.075.285-.27.45-.3.225-.33.285-.765 1.005-1.575 2.655-2.94 4.2-4.98 5.655-1.305.93-2.52 1.56-3.9 1.995l-.09-.18c1.275-.705 2.115-1.335 3.375-2.49 1.905-1.755 3.345-3.689 4.395-5.91.195-.39.315-.72.315-.825 0-.045-.045-.075-.105-.075-.24 0-1.02.18-1.8.42-.24.06-.36.09-.465.09-.285 0-.585-.165-.915-.495-1.35 1.74-3.135 3.225-4.905 4.095l-.12-.165zm8.655-7.17c.765.24 1.32.465 1.815.795.51.315.72.6.72.975 0 .435-.195.78-.465.78-.18 0-.225-.06-.465-.465-.465-.81-.975-1.395-1.695-1.95l.09-.135zm1.335-.93c.735.12 1.245.285 1.845.615.525.285.72.54.72.975 0 .39-.18.69-.405.69-.15 0-.21-.06-.435-.405-.465-.735-.99-1.245-1.8-1.74l.075-.135z"/><path d="M380 48h96v24h-96z" fill="none"/><path fill="#005BAC" d="M380.824 65.11c1.41-.87 3.06-2.265 4.305-3.645.9-.99 2.01-2.49 2.805-3.765.435-.72.69-1.2.975-1.875-1.08.105-3.285.705-4.095 1.095-.3.15-.36.165-.525.165-.36 0-.735-.33-1.11-.96-.24-.405-.36-.75-.36-1.035 0-.135.015-.195.105-.345.435.75.81 1.005 1.485 1.005.51 0 1.935-.195 3.24-.465.96-.18 1.095-.225 1.44-.45.165-.105.24-.135.375-.135.21 0 .6.24.99.6.3.3.45.51.45.69 0 .135-.06.225-.225.345-.33.24-.345.27-.87 1.065-.795 1.23-1.02 1.545-1.89 2.64 1.98.93 3.225 1.665 3.9 2.34.42.435.6.87.6 1.47 0 .675-.27 1.155-.66 1.155-.225 0-.39-.15-.57-.54-.78-1.575-1.92-2.895-3.51-4.095-1.26 1.485-2.25 2.385-3.6 3.314-1.035.705-1.755 1.065-3.165 1.605l-.09-.18zm16.441-4.41c.99-1.14 1.755-2.28 2.475-3.689.675-1.335 1.035-2.235 1.035-2.655 0-.45-.345-.795-1.02-1.05.18-.09.27-.12.45-.12.405 0 .945.165 1.545.48.54.285.825.555.825.81 0 .195-.015.24-.33.66l-.24.405c-.18.315-.675 1.125-.87 1.425.195.15.39.21.75.21.645 0 1.875-.21 3.33-.57 1.14-.285 1.485-.405 2.01-.705.09-.045.225-.075.345-.075.21 0 .615.135.96.33.39.21.555.39.555.615 0 .21-.105.345-.315.405-.135.03-.165.045-.87.12-.645.075-1.125.135-1.725.21-.945.15-1.065.165-1.56.21.72.405 1.02.72 1.02 1.035 0 .24-.18.825-.435 1.5-.69 1.725-1.74 3.27-2.94 4.29-.675.585-1.305 1.005-2.189 1.44l-.135-.135c1.245-1.095 2.16-2.28 2.985-3.855.72-1.395 1.185-2.79 1.185-3.57 0-.255-.075-.39-.3-.615-.735.075-1.065.105-1.545.105-.675 0-.99-.12-1.38-.555-1.02 1.47-2.19 2.64-3.495 3.48l-.12-.135zm16.889-3.179c1.2.15 2.325.465 2.88.825.435.27.615.585.615 1.065 0 .51-.27.915-.615.915-.225 0-.315-.075-.555-.435-.255-.375-.78-.96-1.14-1.305-.36-.33-.69-.57-1.26-.9l.075-.165zm11.939-.48c-.48.81-1.2 1.725-2.13 2.7-1.56 1.635-3.33 3.045-5.745 4.56-.735.465-.96.63-1.2.87-.12.105-.27.18-.405.18-.675 0-1.86-1.56-1.86-2.43 0-.15.03-.27.12-.42.315.615.81 1.035 1.245 1.035.42 0 1.485-.495 3.105-1.47 2.61-1.56 4.935-3.33 6.72-5.145l.15.12zm-10.259-2.31c1.485.225 2.355.495 2.94.9.39.27.555.585.555 1.035 0 .51-.27.93-.615.93-.21 0-.285-.06-.57-.495-.615-.915-1.455-1.695-2.4-2.205l.09-.165zm6.3-.96c.9.345 1.395.6 1.905.975.375.285.54.57.54.945 0 .405-.21.72-.48.72-.15 0-.255-.09-.375-.33-.57-1.065-.87-1.455-1.68-2.19l.09-.12zm1.41-.975c.765.195 1.29.405 1.86.765.42.27.63.6.63 1.035 0 .36-.195.66-.435.66-.135 0-.225-.09-.375-.36-.405-.75-.96-1.365-1.77-1.965l.09-.135zm9.886 5.925c.495 0 1.515-.12 2.265-.285.42-.09.495-.105.72-.27.15-.105.225-.135.345-.135.24 0 .72.3 1.065.675.21.21.27.345.27.51 0 .12-.015.15-.21.39-.09.12-.18.375-.375 1.125-.495 1.875-.495 1.875-.615 2.415 1.755-.12 1.755-.12 2.13-.255.12-.045.18-.06.27-.06.135 0 .42.12.675.285.405.27.63.54.63.78 0 .255-.18.42-.42.42-.09 0-.24-.03-.465-.075-.78-.195-1.335-.255-2.355-.255-1.32 0-2.505.135-3.78.45-.69.165-.84.21-1.335.45-.195.09-.285.12-.435.12-.3 0-.66-.225-.96-.6-.3-.39-.54-.885-.54-1.14 0-.075.015-.15.075-.315.285.525.735.81 1.26.81.195 0 .645-.045 1.2-.135l2.1-.3c.555-.06.555-.06.84-.105.24-1.185.585-3.6.585-4.05 0-.09-.03-.135-.06-.135-.84.12-1.995.45-2.58.75-.09.045-.21.075-.315.075-.315 0-.615-.24-.885-.705-.195-.315-.3-.645-.3-.885 0-.09.015-.15.09-.33.27.54.615.78 1.11.78zm12.93-.151c.345.27.675.345 1.485.345.12 0 3.105-.06 6.12-.12.435-.015.915-.015 1.395-.015 1.605 0 1.98.045 2.235.225.12.09.195.225.195.375 0 .33-.255.54-.78.63-.585.105-1.02.12-6.9.195-.87.015-1.74.06-2.115.09-.225.03-.24.03-.555.165-.075.03-.225.06-.3.06-.345 0-.72-.33-1.065-.945-.3-.54-.45-.99-.45-1.335 0-.225.03-.315.165-.435.255.48.345.6.57.765zm15.735 6.39c.84-.84 1.44-1.755 2.04-3.12.54-1.245 1.005-3.225 1.005-4.29 0-.63-.3-.975-1.065-1.26.18-.135.255-.15.54-.15.345 0 .99.24 1.53.585.48.3.705.555.705.81 0 .15-.03.24-.165.54-.09.195-.09.195-.585 1.92-.45 1.5-1.23 2.85-2.16 3.794-.54.54-.975.87-1.71 1.32l-.135-.15zm13.439-6.435c-.6 1.08-.99 1.62-1.725 2.445-.6.66-1.05 1.095-1.845 1.74-.615.495-1.095.855-1.38 1.05-.375.255-.57.42-.81.66-.15.135-.255.195-.375.195-.465 0-1.17-.945-1.17-1.545 0-.09 0-.09.075-.285.135-.39.165-1.23.165-4.275 0-1.32-.06-2.715-.12-3.135-.09-.585-.42-.87-1.11-1.05.165-.18.27-.225.51-.225.435 0 1.05.195 1.635.51.525.27.765.54.765.81 0 .135-.015.21-.165.525-.075.165-.135.57-.195 1.275-.09.99-.24 4.11-.24 4.859v.51c1.89-.72 4.275-2.43 5.82-4.185l.165.12zm-415.534 11.475h56v2h-56zm88 0h88v2h-88zm120 0h80v2h-80zm112 0h96v2h-96zm128 0h80v2h-80z"/><path fill="#272727" d="M116-28h32v20h-32zm-160 28h40v40h-40zm-20 40h40v40h-40zm300-68h32v20h-32zm112 0h32v20h-32zm128 0h32v20h-32zm-416 20h56v4h-56zm88 0h88v4h-88zm120 0h79.875v4h-79.875zm240 0h80v4h-80zm-128 0h96v4h-96z"/></svg>