<svg xmlns="http://www.w3.org/2000/svg" width="168" height="32" viewBox="0 0 168 32"><defs><style>.a,.b{fill:#dddde4;}.a{fill-rule:evenodd;}</style></defs><title>goingon</title><path class="a" d="M75.502 20.044l.051.171-.06.111.109.117.008-.226a1.966 1.966 0 0 1 .137.966l.23-.105c-.136.519.875 2.302 1.249 1.569l.435.524c.036-.131.005-.077-.049-.228l.228-.049c.025.223.077.072.39.183.172-.118.167-.085.237-.331.199.121.075 0 .049.228.137.115.189.085.335.124.143-.45 1.086-.452 1.486-.459a1.301 1.301 0 0 1 .426-.891.184.184 0 0 1 .279.122l.633-.318.115-.053-.339-.011c.259-.233.457-.11.524-.435.313.031.357.088.452.015l.218.234-.294.33.053.115.348-.271.22.177c-.169.102-.06.048-.284.047.125.368.573.266.898.2.088.31.364.145.721.42l.057.002a2.859 2.859 0 0 1 .096-.533l-.019-.087.026.056c.161-.613.434-1.284.251-1.574l.226.008.015-.452.117-.109-.041-.454.275.235c.054-.169.12-.123-.104-.286l.009-.283.158.345c.236-.119.18-.2.128-.448.252-.174.228-.24.46-.211l.006-.17-.335-.124c.357-.064.158-.12.454-.041l.011-.339-.173.107c.091-.327.169-.116.011-.339l.002-.057a.756.756 0 0 1 .277.179l.057.002c-.072-.177-.07-.187-.217-.29l.283.009.019-.565c.387.082.091-.015.396.013a1.253 1.253 0 0 1 .075-.563.47.47 0 0 1 .46-.211c-.098-.164-.081-.197-.273-.292l.631-.262.06-.111-.339-.011.002-.057.452.015-.104-.286c.413.026.266-.133.463-.324-.128-.124-.105 0-.218-.234l.226.008-.107-.173c-.129-.193-.053-.148-.279-.122l.064-.224c.498.103.386-.157.738-.088l.126-.392-.135-.295-.025.006.004-.052-.055-.119-.055-.058-.011.339-.33-.294.232-.162.113.004-.281-.066-.053-.115.283.009c-.198-.242-.431-.26-.55-.471l-.181.333-.115.053-.041-.454-.232.162c.002-.215.019-.097-.047-.284-.217.071-.117-.005-.232.162l-.17-.006.173-.107-.222-.121a.989.989 0 0 1-.416.608l.243-.501-.053-.115-.057-.002-.128.448c-.134-.174-.062-.129-.041-.454l-.343.102-.229.16v.008l.05.109-.05-.109-.003-.006.003-.002a.189.189 0 0 0-.001-.055l-.288.16.166.119-.232.162c-.244-.284-.368-.164-.846-.085.114-.111.022-.061.23-.105l.006-.17c-.922.357-3.151.886-3.39 1.584-.203-.15-.049-.091-.335-.124l-.002.057.761.931.507.074-.168-.062-.051-.171c.257.12.5.268.674.136.249-.025.087.028.121-.222l.503.187-.158-.345.062-.168.057.002c.104.13.061.123.102.343l.397-.043-.105-.23.503.187c.126-.251.165-.093.183-.39.475.142.311.325.729.194l.055.058a4.204 4.204 0 0 1-.774 1.162l.228-.049c-.096.265-.121.216.104.286a.597.597 0 0 1-.235.275c-.197.105-.068.062-.283-.009-.257.312-.458.838-.371.949l-.288.16.171-.051-.237.331-.006.17-.226-.008.122-.279-.057-.002-.413.495c.142.19.202.218.096.512l.109.117-.228.049-.057-.002a1.983 1.983 0 0 0 .075-.563l-.234.218.115-.053c-.193.334-.216.346-.52.322l-.008.226a.981.981 0 0 0-.88.932l-.279-.122c-.119.251-.173.482-.36.61l-.055-.058c-.397.131-.298.488-.477.719l-.004.113-.057-.002.128-.448-.055-.058-.172.051-.177.22.166.119c-.869-.036-1.339 1.149-2.469 1.105l-.053-.115.226.008.004-.113-.113-.004c-.21-.121-.062-.063-.284.047l.187-.503.002-.057-.234.218-.105-.23.23-.105c-.073-.332-.078-.225-.386-.296l.068-.337c.144.118.111.066.16.288.21-.205.133-.177-.043-.397.203-.104.142.046.288-.16-.157-.046-.094.021-.22-.177l.388.239a1.005 1.005 0 0 0-.215-.347c.218-.082.073-.051.339.011-.157-.172-.149-.153-.392-.126.091-.318.074-.159.235-.275l-.396-.013.117-.109-.105-.23a1.109 1.109 0 0 0-.465.38l-.277-.179.004-.113.392.126c-.122-.285-.023-.237-.331-.237l.002-.057c.285-.213.323-.101.507.074l.004-.113a.342.342 0 0 0-.1-.399c.195-.202.199-.119.461-.267l.055.058-.235.275-.002.057.166.119.3-.499-.107-.173c-.291-.121.255-.533.416-.608-.071-.484.028-.47-.141-.853l.111.06c.109-.206.083-.036-.049-.228l.228-.049-.222-.121.239-.388c-.336-.126-.182-.58-.307-.972l.064-.224c.171.149.11.253.098.456l.051.171.224.064-.102-.343.111.06c.383-.13.331-.579.256-.897.215.012.098-.012.281.066l.057.002c.058-.491.18-.446-.083-.908l.115-.053.047.284.281.066a6.141 6.141 0 0 1-.145-.74l.164.175a1.369 1.369 0 0 0 .266-.55l-.019-.064.03.032a3.332 3.332 0 0 1 .213-.533s-.302-.312-.098-.456c.063.149-.059.087.164.175.115-.238.057-.264.401-.156l.06-.111-.281-.066-.162-.232c.23.038.391.063.452.015l.062-.168.222.121a5.395 5.395 0 0 1 1.127-1.546 1.095 1.095 0 0 1-.154-.458l.002-.057.057.002c.121.193.027.188.273.292a6.246 6.246 0 0 1 2.581-2.742c.589-.299 1.602-.002 1.88-.39.235.146.096-.009.104.286.358-.123.623.164.793-.03.162.178.007.537.198.855.292.487.883.919 1.139 1.452l.057.002-.094-.569-.169-.006c.551-1.449-1.231-2.536-1.971-3.63-.246-.097-.196-.038-.51.039l.177-.22a2.956 2.956 0 0 1-1.349-.271l-.115.053c-.092.229-.068.075-.009.283l-.002.057c-.223-.199-.044-.329-.154-.458-.335.258-.66.279-.646.714l-.448-.128-.064.224.386.296-.501-.243.047.284-.271-.348-.228.049.22.177-.224-.064.104.286c-.262.055-.182-.03-.458.154l.064-.224c-.375.065-.503.158-.569.094-.326.26-.393.547-.872.706l.224.064c-.137.131-.283.108-.405.269.155-.118.087.206.102.343l.168.062-.041-.454.111.06-.017.509c-.82-.306-.894.355-1.541.401l.38.465a.93.93 0 0 0-.557-.245c.192.255.178.068.331.237l-.234.218c-.201-.074-.153-.069-.277-.179l-.013.396c-.092.087-.065.057-.111-.06-.445.452.027.197-.703.712l.039.51.333.181c-.167.122-.187.051-.396-.013a1.265 1.265 0 0 1-.038-.567l-.356.497.1.399c-.231-.188-.167-.11-.102-.343-.228.116-.211.091-.181.333a.889.889 0 0 0 .105.23c-.234.06-.175-.057-.177.22-.336-.086-.138-.027-.51.039l.782.309-.392-.126.102.343-.171.051c.153-.265-.046-.308-.158-.345l-.168-.062.105.23-.166-.119c-.081.165-.038.126-.177.22l.61.36a.754.754 0 0 0 .102.343c-.112-.033-.071.062-.166-.119l-.057-.002.102.343-.111-.06c-.192-.099-.126-.058-.218-.234l.234-.218c-.252.066-.425-.204-.443-.298-.305.203-.342.806-.43 1.004-.186.22-.163.087.047.284-.703.264-.146.833-.605 1.168l-.07.394.348-.271.109.117-.23.105.158.345c-.489-.273-.667.334-.763.823l.173-.107.053.115c-.896.375-.436 5.165-.456 5.189zm12.887-6.47l-.053-.115.053.115zm-.418-1.032l.094.569-.107-.173c-.192.144-.118.147-.181.333l.23-.105.164.175-.239.388-.002.057.171-.051.109.117-.06.111-.171.051c-.112-.127-.073-.112-.277-.179-.123-.553.147-.878.269-1.292zm-.531.661l.049.228-.049-.228zm-.309 2.479c-.091-.218-.059-.073.009-.283l.166.119zm0-3.394l.213.403-.164-.175c-.106-.151-.053-.055-.049-.228zm-.628 3.543l.057.002.053.115-.17-.006zm.041.454c.059-.276.09-.018.177-.22l.113.004c-.109.172-.084.146-.29.217.049.189.093.18.045.341-.114.111-.022.061-.23.105.078-.14.043-.31.185-.446zm-.341.045l.047.284c-.102-.169-.048-.06-.047-.284zm-.083.789l.057.002-.006.17-.109-.117zm-.197-4.249l.057.002-.117.109zm-.279 4.969l.107.173-.113-.004zm-3.593-4.193l.06-.111.113.004zm.684-.147l-.339-.011.006-.17c.207.047.19.001.335.124zm.087.795l-.047-.284a1.997 1.997 0 0 0 .275.235zm.514-.152l-.053-.115.053.115zm.733.081l.002-.057.171-.051.057.002c.11.171-.055.094-.23.105zm.122-.279l.166.119zm.292-.273l.06-.111.053.115zm.2-.898l-.053-.115.053.115zm.396.013l-.053-.115.058-.055.166.119zm.547 5.618c-.241-.044-.218.01-.335-.124zm-.386-.296l.053.115-.113-.004zm-.015.452l-.166-.119.166.119zm-.499 1.397l-.004.113zm-.329-3.688l-.053-.115.053.115zm-.119 3.56l.049.228-.057-.002-.055-.058zm-.791-1.723l-.166-.119zm-.639.488l.171-.051.057.002c-.119.203.023.097-.232.162zm-.462 1.964l.057.002-.121.222zm-.066.281l.057.002c-.055.128.021.055-.175.164zm-.331-.237l.105.23-.057-.002-.111-.06zm-.245.557l.006-.17.107.173zm-.049-1.925c.133.111.07.119.16.288l-.06.111-.057-.002c-.111-.122-.069-.236-.043-.397zm-.296.386l.053.115-.002.057-.171.051-.105-.23zm-.396 1.684l.057.002.053.115-.345.158zm-.635.375l.057.002.051.171-.283-.009-.053-.115zm-.772-.591l-.053-.115.053.115zm-.104 1.411l-.23.105-.105-.23zm-.401.156l-.053-.115.053.115zm-.912.196l-.053-.115.053.115zm-1.286-.439l.008-.226.049.228zm.492-2.868c-.149.032-.146.021-.281-.066zm-.435 1.173l.113.004-.173.107zm10.707-14.01l.057.002.053.115-.17-.006zm-.996-.656l-.105-.23c.111.114.061.022.105.23zm-.452-.015l-.006.17zm-.674-.136l.057.002.162.232-.281-.066zm-.064-1.473c.042.141.019.049-.062.168zm-.222 1.576l.057.002-.119.166zm-.171-1.646c.106.079.026.049.104.286l-.218-.234zm-.279 1.575l.053.115-.113-.004zm-.591.772l.004-.113-.004.113zm.187-2.2l-.115.053-.051-.171zm-.228 1.746l.057.002-.062.168zm-1.062 1.322l.057.002-.117.109zm-.769.992l-.113-.004.138-.731c.185.163-.007.424-.025.735zm-.145-2.437l.109.117-.115.053zm-.051-.171l-.117.109-.098-.456zm-2.076 2.872l.004-.113-.004.113zm.329 1.991l-.051-.171.277.179zm.106-1.467l.009-.283.444.241-.002.057c-.245.081-.154-.014-.452-.015zm-.043-.397l.008-.226.049.228zm.772.592l-.339-.011.343-.102.17.006zm-.237-1.365l.058-.055.057.002-.006.17zm.311.859l.166.119-.166-.119zm.155-2.936l.057.002-.117.109zm-.111 1.637l-.288.16-.057-.002.235-.275.057.002zm-.047-.284l-.06.111-.228.049.122-.279.113.004zm-.38-.465l.115-.053.17.006-.008.226-.283-.009zm-.226-.008l-.117.109-.051-.171zm-.064.224l.113.004-.115.053-.119.166zm-.074.507c.231.255.038.363.036.623l-.211-.46zm-.399.1l.113.004-.173.107zm-.077.62l.053.115-.113-.004zm-.513 3.49l.111.06-.175.164c-.033-.133.036-.104.064-.224zm-.609 1.281c-.188-.163-.086-.004-.104-.286l.166.119.113.004zm.518-3.659l-.16-.288c.144.118.111.066.16.288zm-.313-.802l-.053-.115.053.115zm-.36.61c.088-.256-.037-.369.021-.622l.109.117c.107.218.059.066-.066.281l.281.066a.624.624 0 0 0 .094.569l-.166-.119c-.104-.156-.066-.097-.047-.284zm-2.074 12.941l-.058.055c-.051-.18-.01-.183.068-.337zm.01-1.98l.113.004-.173.107zm-.074 2.204l-.053-.115.053.115zm.017-3.902c-.105-.152-.038-.122-.043-.397a.852.852 0 0 1 .162.232l.066-.281.107.173zm.212-6.328l-.053-.115.053.115zm.203 4.08l-.17-.006zm-.092-.625l.226.008-.002.057-.117.109zm.03 2.49l-.051-.171.107.173zm-.043-.397l.17.006-.17-.006zm.226-1.689l-.053-.115.053.115zm-.037-2.264l.068-.337.109.117-.008.226zm.73 3.532l.004-.113-.004.113zm.049-1.469l-.053-.115.053.115zm.01-1.98l.175-.164.224.064c-.269.131-.216-.024-.29.217zm.036.623l.06-.111.053.115zm.124-.335l.115-.053.004-.113c.285.279.218.366.318.633-.187-.194-.141-.35-.437-.467zm.401-.156l-.053-.115.053.115zm.066-.281l-.055-.058.064-.224.107.173zm.138-.731c-.163.203-.25.201-.301.556l-.111-.06c.063-.271.056-.298.296-.386l-.215-.347zm-.425-2.503l.111.06-.117.109-.053-.115zm-.371 2.646a.584.584 0 0 1 .217.29c-.172-.109-.146-.084-.217-.29zm.279-3.272l-.053-.115.053.115zm-.053 1.582l-.22-.177c.212.085.117.002.22.177zm-.371.949l.109.117-.117.109zm.149.627c-.166-.114-.095-.013-.162-.232zm-.16 3.106l-.053-.115.053.115zm-.138.731l.057.002.107.173-.405.269zm-.12-4.869l.107.173-.113-.004zm-.251 5.818l.226.008-.002.057-.117.109-.168-.062zm-.176-6.568c.205.112.171.212.328.35l-.066.281-.377-.578zm-.3.499l.113.004.053.115-.173.107zm-.193 7.46l.057.002-.062.168-.17-.006zm-.203-.686l.107.173-.113-.004zm-.011.339l-.004.113zm-.659-2.285l.06-.111.057.002zM80.817 6.589l-.109-.117.051.171zM78.948 8.337l-.115.053c.121.036.073-.001.115-.053zM130.124 18.987c.267-.047.637-.028.684-.147l.345-.158.006-.17-.343.102.294-.33c-.038-.168 0-.072-.162-.232.347-.164.345-.018.411-.439l.057.002c.086.371.116.322.036.623l.397-.043c-.108-.237-.033-.263-.269-.405l.002-.057.392.126c-.099-.224-.137-.295-.384-.352l.002-.057.446.185c.077-.402.27-.464.522-.379l-.104-.286.162.232c.344-.175.32-.699.765-.879l.002-.057c-.193-.123-.107-.049-.396-.013.175-.252.228-.121.128-.448l.284-.047.109.117-.228.049-.004.113.571-.151c.129.091.609-.572.59-.716l.396.013.008-.226c.155-.069.392.034.522-.379l.113.004.051.171c-.62.296-.481 2.63-.441 3.04a.718.718 0 0 1 .669.305l.064-.224c.246-.106.206-.018.448.128l.226.008-.107-.173.226.008-.043-.397.166.119.06-.111c-.143-.116-.051-.057-.224-.064l.008-.226c.426.126.571-.095.789.083l.122-.279-.222-.121a1.622 1.622 0 0 1 .904.03l.171-.051c-.092-.234-.081-.122-.102-.343l-.281-.066.002-.057.339.011-.009.283.111.06.29-.217.008-.226c.122.165.087.21.098.456.175-.154.097.007.064-.224l.002-.057.279.122.057.002-.213-.403.168.062c-.151-.397-.177-.202-.147-.684l-.234.218c-.084-.166-.005-.108.124-.335l.002-.057a.86.86 0 0 0-.52.322c-.113-.195.037-.266.132-.561l-.111-.06-.119.166c-.253.038-.072.035-.335-.124a4.64 4.64 0 0 1-1.548.627c.262-.365.537-1.959.75-2.124l-.049-.228-.173.107.009-.283c-.3.004-.247.054-.39-.183.191.049.086.003.284-.047-.17-.498-.665-.564-.693-1.268l-.057-.002-.011.339-.162-.232-.347.215.105.23-.002.057-.682.09.043.397-.39-.183c-.128.125-.082.051.051.171l-.514.152a1.592 1.592 0 0 0-.085.846c-.217-.102-.14-.02-.164-.175l-.109-.117-.117.109.107.173a.739.739 0 0 0-.736.032l-.057-.002c.328-.898-.256-1.097-.448-1.825l-.111-.06-.057-.002-.075.563-.166-.119-1.089 2.113.168.062a6.163 6.163 0 0 0-1.11 4.432zm8.583-2.937l.166.119-.226-.008zm-.337-.068l.107.173-.002.057-.171.051-.047-.284zm-.166-.119l-.053-.115.053.115zm-.441-.354l.109.117-.115.053zm-.008.226l.164.175-.058.055-.17-.006zm-.072.45l.107.173-.002.057-.115.053zm-.177.22l.113.004-.002.057-.117.109-.055-.058zm-.578.377l.224.064-.002.057-.062.168-.17-.006zm-.141-2.55l.053.115-.113-.004zm-.286-1.593c.097.053.063.11.16.288l-.171.051c-.076-.232-.048-.076.011-.339zm-.121 1.919l-.004.113zm-.136 2.371l.107.173-.113-.004zm-.764-2.515l-.107-.173.17.006zm.348 3.123l.057.002-.181.333-.057-.002zm-.127-4.643l-.002.057-.057-.002-.168-.062.06-.111zm-.16-.288c-.116.013-.098.009-.224-.064zm-.396-.013l-.053-.115.053.115zm-.983 2.343c.16.106.138.114.217.29-.167-.121-.147-.058-.217-.29zm.011-.339l.055.058.111.06-.117.109zm.064-.224l.166.119-.166-.119zm.232-.162l-.173.107.006-.17.17.006zm.45.072l-.064.224-.105-.23zm-.179.277l-.004.113zm-.009.283l-.062.168-.057-.002-.055-.058.06-.111zm-.333-1.878l.162.232.113.004-.002.057-.396-.013-.049-.228zm-.077.62l.057.002c-.021.154-.027.135-.179.277l-.057-.002zm-.3.499l.113.004.053.115-.23.105-.057-.002zm-.166-.119l-.002.057c-.187-.085-.117-.036-.22-.177zm-.29.217l.113.004-.119.166zm-.993 2.625l-.053-.115.053.115zm.286-.104a.838.838 0 0 1-.217-.29l.228-.049zm.39-1.514l-.113-.004c.002-.215.019-.097-.047-.284l.17.006zm-.088-.738l.107.173-.115.053zm-.318-.633l.277.179a1.317 1.317 0 0 0-.348.271l-.057-.002c.081-.283.117-.214.128-.448zm.154.458c.088.158-.109.106-.122.279l-.168-.062-.053-.115zm-.187.503l-.166-.119zm-.324-.463l.107.173-.002.057-.115.053zm.429.693c-.26.11-.149-.065-.232.162l-.384-.352zm-.693 2.126c-.239-.029-.223-.002-.335-.124.226.033.22.025.335.124zm-.507-.074l.113.004-.175.164zm-.116-3.285l.107.173-.113-.004zm-1.113 2.848l-.053-.115.053.115zM99.062 17.495l.002.004.008-.01-.01.006zM101.477 14.634l-.279-.122c-.114.293-.202.309-.19.616-.321.02-.239.142-.569.094.014.379-.076.431-.305.669l.055.058c.16-.11.136.014.235-.275a.822.822 0 0 1 .156.401l-.053-.115c-.25.08-.215.082-.294.33.224-.118.078.027.121-.222.181.152.09.107.16.288a1.258 1.258 0 0 0-.465.38l-.002.057.341-.045-.066.281a2.628 2.628 0 0 1-.733-.081l-.064.224.284-.047c-.171.186-.102.109-.397.043l-.188.559-.057-.002-.104-.226c-.557.563.419 2.681.508 3.351l.17.006c-.093-.22-.228-.375-.092-.625l.004-.113c.176.191.125.154.045.341.355.107.401.07.331.237l-.002.057.742-.201c-.117-.362-.14-.355-.38-.465l-.051-.171c.251-.01.159.058.452.015l.041.454.057.002c.157-.155.129-.232.132-.561l.049.228.113.004.245-.557-.397.043.002-.057.234-.218.218.234.062-.168a.91.91 0 0 1-.548-.527l.002-.057c.131.104.095.059.162.232.165-.173.154-.249.13-.505.166.114.095.013.162.232.203-.143.086-.021.121-.222l.226.008-.064.224c.278-.122.166-.066.181-.333l.283.009c.097-.109-.017-.477-.141-.853l.002-.057c.179.093.187.181.269.405l.403-.213c.02-.336.019-.418-.264-.574l.002-.057c.331.081.291.126.441.354.3-.476.96-1.314 1.343-1.256l.121-.222.053.115-.234.218c.11.119.053.082.279.122-.121.247.008.102-.234.218.167.183.057.1.335.124a3.399 3.399 0 0 0 .326 2.104l-.166-.119-.117.109c.143.227.315.183.265.518l.399-.1.06-.111-.066.281c.185.115.201.017.22.177.373-.066.057-.137.345-.158l-.104-.286c.221.094.244.135.328.35a2.22 2.22 0 0 0 .364-.723l.051.171.218.234a.616.616 0 0 0 .245-.557l.117-.109.098.456c.154.214.038.111.335.124l-.008.226-.067.103.006.008h-.011l-.107.166.386.296.17.006-.331-.237.002-.057c.354.105.277.297.507.074.127.259.119.293.443.298l-.117.109c.132.242.061.093.394.07l.043.397.226.008c.007-.248.144-.411.465-.38-.051-.156-.153-.463-.258-.744l.377.578-.187.503.113.004a1.488 1.488 0 0 0 .083-.789l.382.409.057.002.06-.111.17.006c-.115-.291-.006-.152-.277-.179.149-.243.173-.107.35-.328l-.16-.288.388.239c-.114.111-.022.061-.23.105l.049.228c.305-.164.223-.237.514-.152a.837.837 0 0 0-.495-.413l-.053-.115a1.97 1.97 0 0 0 1.349.271l-.066.281c-.227-.092-.092-.045-.396-.013.181.425-.142.663-.266 1.179l.17.006-.232.162c.089.195.074.116.218.234l-.232.162c-.112.154.003.083.166.119-.142.209.005.142-.23.105-.058.154-.002.231.154.458l-.23.105-.119.166c.23-.007.135-.07.281.066-.215-.043-.321.039-.563-.075-.219.451-.558 1.271-1.29 1.371l.047.284-.397.043c.146-.143.078-.085.23-.105l.06-.111-.055-.058c-.626.035-.68-.033-1.358.011-.061.203 0 .115-.121.222.015-.179.038-.076-.049-.228l.004-.113-.234.218a1.698 1.698 0 0 0-.842-.198l-.173.107c.137.088.095.047.224.064a.482.482 0 0 1-.232.162c-.149-.178-.242-.253-.269-.405-.673.224-1.102-.067-1.682-.452a2.465 2.465 0 0 1-.305.669c.283.109.222.349.094.569l.109.117c.245-.032.205.088.271.348l-.173.107c-.109.27.095.33.262.631.197-.106.118-.042.175-.164.112.117.078.059.104.286l.224.064-.049-.228a3.992 3.992 0 0 0 1.175.379l-.053-.115c.483-.191.859.1 1.652-.341l.117-.109a1.5 1.5 0 0 1 .262.631c.523-.309 1.141-.124 1.484-.403l.218.234.109.117c.033-.205-.037-.162-.158-.345l.235-.275.096.512.17.006-.203-.686c.237.188.208.271.557.245l-.013.396.057.002c.16-.143.107-.292.136-.674l.057.002c.19.04.134.049.284-.047l-.339-.011a.521.521 0 0 1 .518-.265c-.098-.223.012-.121.019-.565l.051.171.23-.105.115-.053.002-.057-.171.051-.109-.117.168.062a.804.804 0 0 0 .138-.731l.339.011c-.037-.134-.021-.082-.162-.232.367-.283.098-.531.42-.721-.147-.136-.142-.056-.217-.29l-.173.107c-.036.014-.104-.008-.217-.29l.166.119c.09-.175.047-.053.066-.281l.269.405.07-.394c-.06-.232-.016-.157.175-.164a.535.535 0 0 1 .126-.392l-.228.049.173-.107c.086-.252.037-.053-.045-.341.116-.152.09-.088.121-.222l-.051-.171c.193-.203.267-.394.469-.493l-.205-.629c.18-.011.113-.009.281.066a5.103 5.103 0 0 0 .33-1.403c.057-.126-.067-.152-.16-.288.346-.091.026-.266.467-.437l-.158-.345.403-.213a.873.873 0 0 0-.397.043 1.396 1.396 0 0 0 .305-.669l.454-.041.171-.051-.222-.121c.243-.089.202.063.345-.158l.113.004c-.147-.136-.142-.056-.217-.29l-.057-.002c-.251.142-.175.043-.181.333-.191-.068-.105-.06-.281-.066a2.76 2.76 0 0 1 .364-.723l-.224-.064c.121-.247.051-.244.235-.275-.115-.16-.08-.134-.333-.181.131-.114.151-.095.456-.098a.98.98 0 0 1 .025-.735l-.314-.746.226.008-.051-.171c-.071-.054.01-.084-.168-.062l.181-.333-.403.213c.027-.222.081-.198.185-.446l.002-.057c-.171-.005-.119.001-.286.104l.066-.281c-.229-.072-.257.013-.514.152-.098-.175-.039-.162-.041-.454l.051.171.111.06.074-.507-.226-.008-.175.164-.06.111.109.117c-.279-.187-.258-.363-.262-.631l-.461.267.013-.396c-.269.173-.136.223-.072.45l-.397.043.008-.226-.17-.006.049.228-.062.168-.22-.177-.066.281-.396-.013-.002.057.224.064a.769.769 0 0 0-.132.561c-.406-.124-1.174.008-1.258.41-.11.184-.053.018.049.228l-.002.057-.17-.006a.687.687 0 0 0-.267-.461c.055.058-.013.047-.058.055-.093.086-.062.061.053.115l-.006.17-.631.262c.138.203.097.078.102.343l.117-.109.057.002c-.094.267.029.13-.232.162.098.229.142.13.213.403a1.693 1.693 0 0 1-.448-.128l-.115.053.164.175c-.158.112-.031.042-.284.047l-.002.057.557.245-.105-.23.228-.049-.011.339c-.13.073-.326-.054-.507-.074-.57-.21-1.235 1.382-1.417 1.763l.226.008c-.065.2-.073.16-.068.337l-.397.043c.109.123.042.101-.011.339-.273-.068-.174-.078-.396-.013.038-.108-.04-.078.117-.109l.002-.057c-.227.028-.168-.01-.286.104-.066.078-.099-.006-.066.281l-.107-.173c-.205.008-.452-.015-.522.379l-.554-.358-.109-.117c.355.105.253.134.556.301-.159-.361-.164-1.051.098-1.241l.002-.057-.228.049-.164-.175c.15-.106.068-.049.341-.045l-.377-.578.002-.057.17.006c.274-.272.048-.646.092-1.072l-.057-.002-.057-.002.032.736-.119.166a1.596 1.596 0 0 1-.032-.736l.006-.17-.392-.126c-.079.186-.065.054.047.284l-.062.168-.057-.002c-.065-.392-.094-.934-.303-1.085-.041-.031-.21.041-.275-.235-.31.116-.298.15-.411.439-.187-.065-.199.035-.333-.181-.26.137-.156.072-.237.331l-.057-.002c-.106-.151-.053-.055-.049-.228-.279.179-.035.264-.409.382l.047.284c.126.122.148.057.279.122-.256.204-.43.163-.35.328-.115.086-.08.074-.286.104l-.049-.228.168.062c-.135-.198-.11-.09-.102-.343l-.298.443.008-.226a.592.592 0 0 1-.667-.362 1.205 1.205 0 0 0-.248.67zm-2.487 3.311l.17.006c-.138.062-.079.138-.17-.006zm.333.181l-.158-.345c.266.077.308.053.444.241-.243.017-.091-.027-.286.104zm.136-.674l.17.006c-.138.062-.079.138-.17-.006zm.919 2.972l.113.004-.173.107zm.217-4.801l.004-.113-.004.113zm.396.013l-.17-.006.006-.17.166.119zm.298-.443l.004-.113-.004.113zm-.156-.401l.226.008.049.228zm.241 2.95c.131.104.095.059.162.232zm2.843 6.317l.006-.17.057.002zm.077-.62l.004-.113-.004.113zm.252.914l.115-.053.113.004-.23.105zm.26.687l-.115.053-.053-.115.006-.17.164.175zm-.028-.849l.008-.226.049.228zm.094.569l.17.006c-.138.062-.079.138-.17-.006zm.098.456l.162.232c-.131-.104-.095-.059-.162-.232zm.631-.262l.047.284c-.12-.141-.095-.091-.047-.284zm.712.703l.004-.113-.004.113zm.139-.787l-.053-.115.053.115zm.655.701l.122-.279.057.002c-.07.202-.05.164-.179.277zm.456-.098l-.173.107.124-.335c.191.084.057.049.049.228zm1.122.264c.022-.203.064-.062-.107-.173l.06-.111.277.179zm.39-1.514l.166.119zm.243 1.196l.006-.17.107.173zm.816-2.405l.113.004.162.232c-.224-.088-.167-.059-.275-.235zm.407-.326l-.057-.002.175-.164.166.119c-.179-.023-.112-.017-.284.047zm1-2.851l.166.119zm2.557-7.098l-.004.113zm.034.68l.113.004.105.23-.002.057a.873.873 0 0 0-.397.043.463.463 0 0 1 .181-.333zm-.445 3.153l-.166-.119.166.119zm-.109-1.814l-.006.17-.057-.002-.045-.341zm-4.747 3.235l.17.006c-.138.062-.079.138-.17-.006zm.207 2.27l-.111-.06.062-.168.105.23zm-.196-2.609l.388.239c-.17-.078-.241-.026-.388-.239zm.461 1.43l.06-.111.053.115zm.497.356l-.115.053c-.086.093-.052-.076-.053-.115l.17.006zm-.152-.514l.008-.226.17.006-.002.057-.062.168-.057-.002zm.162.232l-.053-.115.053.115zm.281-1.631l.006-.17.057.002zm.13 1.192l.565.019.053.115-.403.213zm.066-.281l.166.119-.058.055zm.484.752l-.051-.171.168.062zm.13-.505l.224.064c-.168.032-.1.057-.224-.064zm.832.48l-.175.164c-.232-.159-.211-.13-.507-.074-.022-.193-.015-.065.064-.224-.018-.094-.019-.058.23-.105a3.503 3.503 0 0 1-.149-.627c.186.168.106.093.102.343l.234-.218.222.121-.002.057-.062.168-.171.051.279.122-.228.049c.108.094.075.079.279.122l.049.228-.164-.175zm-.192-1.025l.107.173-.057-.002zm.126-.392l.008-.226c.111.114.061.022.105.23zm.19-.616c.111.114.061.022.105.23zm.004 1.584l.06-.111.053.115zm.42-2.418l-.057-.002-.104-.286.166.119zm.106-1.467l.335.124c-.178.043-.205.009-.335-.124zm.448.128l.06-.111.113.004-.173.107zm.164-3.219l-.053-.115.053.115zm-.294.33l-.004.113zm-.152-.514l.057.002-.008.226-.17-.006zm-.286.104c-.159.041-.098.026-.224-.064zm-.345.158l.224.064-.234.218-.004.113-.057-.002a.944.944 0 0 0 .07-.394zm-.74 1.842l-.053-.115.053.115zm-.279-.122l.17.006-.23.105zm.094.569c-.163.124-.072.121-.226-.008zm-.388-.239l.222.121c-.203-.061-.115 0-.222-.121zm.013-.396l.166.119-.166-.119zm.132-.561l-.004.113zm-.23.105l.109.117-.002.057-.166-.119zm-.241 2.141l.107.173-.113-.004zm-.053-.115l-.053-.115.053.115zm-.052-1.812l.057.002.051.171-.222-.121zm-.122.279l.16.288-.006.17-.386-.296.004-.113.228-.049zm.096.512l-.006.17-.002.057-.115.053-.047-.284zm-.314-.746c-.168.032-.1.057-.224-.064zm-.232.162l.324.463-.22-.177-.064.224c-.186-.22-.047-.156-.04-.51zm.254.857a.862.862 0 0 1-.275-.235l.17.006zm-.226-.008c.13.152.091.134.104.286l.109.117-.345.158a1.433 1.433 0 0 0 .132-.561zm-.134.618l.113.004-.062.168-.109-.117zm-.023.678l.057.002.107.173-.222-.121zm.271.348l-.166-.119zm-.454.041l.057.002.049.228-.057-.002c-.106-.151-.054-.055-.049-.228zm-.179.277c.248.086.116-.037.22.177l.284-.047-.166-.119.006-.17c.17-.106.067-.056.283.009.152-.179.084-.169.072-.45l.111.06.168.062-.171.051.222.121.06-.111-.151-.571.273.292.234-.218-.045-.341.343-.102c-.005-.209.033-.057-.105-.23.293-.07.978-1.254.951-1.382l.168.062.582-.49.503.187c.136.274.14.105-.011.339l.283.009-.288.16.277.179-.002.057-.456.098.17.006-.405.269c.242.004.202-.044.333.181l-.166-.119c-.18.309-.436.498-.371.949l-.281-.066.326.407-.009.283-.509-.017-.077.62-.109-.117c-.217.071-.117-.005-.232.162l.168.062-.002.057-.505-.13-.057-.002c.105.172.256.209.384.352l-.503-.187-.06.111c.053.125.225.131.051.171-.168.203-.046.108-.343.102a.593.593 0 0 0 .158.345c-.198-.043-.235-.12-.384-.352a.731.731 0 0 0 .041.454c-.363-.245-.205-.099-.733-.081l-.064.224.22.177c-.237.101-.177.004-.39-.183l.047.284-.441-.354c.075-.25.083-.096.011-.339l.058-.055c.229-.007.152-.016.337.068l.057.002c-.101-.185-.169-.176-.33-.294.216-.044.154.029.286-.104l.115-.053c-.113-.157-.119-.162-.331-.237l-.107-.173zm.636 1.266l.004-.113-.004.113zm-.765-.818l.171-.051.111.06-.117.109-.17-.006zm-.249.67l.057.002.053.115-.17-.006zm-.145.957l-.057-.002.068-.337zm-.005-1.527l-.113-.004-.051-.171zm-.303-1.085l-.053-.115.053.115zm-.07 3.788l-.173.107.06-.111zm-.033-4.074l-.166-.119.166.119zm-.409 3.776l-.053-.115.053.115zm.111.06l-.232.162-.055-.058.06-.111zm-.216-1.987l-.053-.115.053.115zm-.833 1.217l.006-.17.111.06zm.309-.782l.006-.17.057.002zm.021-.622l.113.004-.173.107zm-.235.275l.17.006-.072.45-.228.049-.051-.171c.142-.141.14.044.181-.333zm-.222-.121l-.004.113zm-.497 1.341l.053.115-.113-.004zm-.124.335l.111.06-.062.168-.049-.228zm-.518.265l-.004.113zm-.048-3.622l-.22-.177c.212.085.117.002.22.177zm-.341 1.742l.047.284-.057-.002-.057-.002zm-.551-3.808l-.053-.115.053.115zm-.381 1.232l.222.121c-.2.106-.158.057-.008.226l-.006.17c-.257-.192-.297-.283-.209-.516zm-.188-1.138l.105.23-.113-.004zm-.173.107l-.166-.119.166.119zm-.121.222l.051.171c-.24-.099-.084.005-.162-.232zm.352 1.313l-.335-.124.045.341-.057-.002-.154-.458c.295.032.375.064.501.243zm-.407.326l-.166-.119zm-.008.226l-.115.053-.051-.171zm-.763.823l-.168-.062.234-.218.113.004-.179.277zm.435-2.87a.874.874 0 0 0 .162.232l-.004.113-.226-.008c.01-.26-.014-.147.068-.337zm-.036 1.074l.107.173-.173.107c.023-.179.017-.112-.047-.284zm-.156 1.296l-.053-.115.053.115zm-.019-1.132c-.165-.145-.14-.131-.16-.288.144.118.111.066.16.288zm-.401.156l.168.062-.173.107zm.047.284c.187.085.117.036.22.177-.253.004-.089-.105-.23.105l-.057-.002zm.143.797l-.06.111c-.202-.07-.165-.05-.277-.179zm-.531-1.036l-.053-.115.053.115zm.077 1.077c-.044.164-.099.148-.17-.006zm-.855 1.895l.004-.113-.004.113zm.019-.565l-.051-.171.17.006.107.173zm.326.407l-.164-.175.226.008zm.153-1.183c.042.141.019.049-.062.168l-.06.111-.051-.171zm-.128.448c-.145.133-.198.098-.397.043l.006-.17c.241.087.186.117.392.126zM77.82 9.939l-.113-.004-.06.111.173-.107zM126.638 11.573l-.004.113.117-.109zM121.873 17.07l.057.002-.074.507.17.006c.294.478-.235.813.243 1.196-.109-.252.083-.097.126-.392l.113.004.053.115a3.696 3.696 0 0 0-.139.787.549.549 0 0 0 .39.183l-.004.113.057.002-.211-.46.113.004.004-.113c.133.142.375.382.377.578.143.116.051.057.224.064l.109.117-.17-.006c.171.155.774.179 1.121.32l.173-.107-.339-.011.008-.226.62.077.002-.057-.224-.064-.053-.115c.355.058.267.082.565.019l-.062.168c.193.104.118.018.337.068.03-.191-.034-.337-.326-.407.146-.172.171-.198.183-.39a1.233 1.233 0 0 1 .309.915c.247-.103.179-.13.401-.156l.062-.168-.226-.008.058-.055c.264-.095.202-.034.179-.277.118.041.079.042.22.177.016-.31-.121-.223.235-.275-.143-.203-.021-.086-.222-.121l.008-.226.575-.264c.07-.077-.026-.34.075-.563l.004-.113.328.35c.069-.398.126-.032.13-.505.161-.102.083.009.107.173l.29-.217-.392-.126.002-.057.283.009c-.118-.257.037-.231.074-.507l.277.179.181-.333.107.173-.124.335a1.438 1.438 0 0 0 .695-.486l-.39-.183.006-.17c.248.086.116-.037.22.177.13-.255-.072-.216.237-.331-.155-.161-.171.01-.273-.292l.39.183.06-.111-.337-.068.239-.388-.17-.006c.156-.086.124-.052.284-.047l-.252-.913.117-.109c.138.214.141.163.156.401.127-.161.084-.136.07-.394a.944.944 0 0 1 .397-.043l.07-.394-.228.049.171-.051c-.02-.329-.438-1.341-.8-1.441-.07-.275-.329-.262-.669-.305l.234-.218-.397.043c-.023-.445-.296-.485-.493-.469l-.049-.228c-.196.161-.297.149-.35.328l-.345.158-.164-.175-.109-.117a.939.939 0 0 0-.068.337c-.467-.198-.494-.055-.955-.202-.166.191-.133.247-.405.269l.166.119-.341.045.107.173-.002.057-.224-.064c-.044.197-.091.071.105.23l-.002.057-.228.049.008-.226c-.168.103-.083.056-.284.047a1.765 1.765 0 0 0 .32.576c-.355.056-.389-.043-.46.211l-.051-.171-.162-.232a1.204 1.204 0 0 0 .09.682l-.002.057-.284.047c.137-.23.039-.327.075-.563-.479.139-.246.454-.48.832l-.284.047-.171.051-.06.111.495.413-.67-.249c.101.383 0 .255.032.736-.218.091-.073.059-.283-.009l-.718 1.164-.117.109.281.066-.23.105-.006.17.226.008-.29.217.17.006zm7.498-2.634l.002-.057.171-.051c-.026.032.027.068-.173.107zm-.038-.567l.053.115-.113-.004zm-.134.618l.053.115-.158-.345c.143.146.085.078.105.23zm-.145.957c-.138.062-.079.138-.17-.006zm-5.733-1.097l-.053-.115.053.115zm-.78 4.725l.006-.17.107.173zm.179-.277l-.102-.343.113.004.045.341zm.021-.622l.06-.111.053.115zm.403-.213l.002-.057.115-.053zm-.107-.173l-.057-.002.002-.057.06-.111.226.008zm.668 2.002l-.049-.228c.111.114.061.022.105.23zm-.039-.51l.06-.111.057.002.053.115zm.269.405l.008-.226.105.23zm2.422-1.39l.006-.17.111.06zm.859-.311l.006-.17.057.002zm.946-1.213l.006-.17c.248.083.248.042.33.294-.171-.146-.099-.138-.335-.124zm.162-1.465l.06-.111.053.115zm.167 1.759l.004-.113-.004.113zm.19-.616c-.287-.101-.205-.144-.215-.347l.22.177zm-.165-1.816l.06-.111.057.002zm.309-.782c.042.141.019.049-.062.168l-.053-.115zm-.33-.294l.06-.111.057.002.051.171-.17-.006zm-.217-.29l-.119.166c-.264-.071-.183-.015-.275-.235.256.154.114.117.394.07zm-.307-.972l-.117.109-.051-.171zm-.665-.418l.226.008c-.012.253-.093.155.105.23l-.175.164c-.062-.277.048-.259-.16-.288zm-.29.217l.113.004-.006.17-.17-.006zm-.175.164l-.006.17c-.212-.085-.117-.002-.22-.177zm-.961-.032l-.002.057-.057-.002-.107-.173zm-.335-.124l.057.002-.119.166zm-.072.45l-.004.113zm-.066.281l.053.115-.113-.004zm-.1-.399l.053.115-.113-.004zm-.597.942l.053.115-.113-.004zm-.588.659l-.006.17-.164-.175zm-.422 2.475l-.166-.119zm-.13.505l.17.006c.123-.14-.012-.126.183-.39l-.17-.006.292-.273-.158-.345.166.119c.067-.398.192-.597.303-.612-.004-.391-.056-.446-.262-.631l.064-.224.218.234.068-.337.279.122 1.175-1.318c.288-.197.773-.206.974-.363.278.31.309.222.785.196l-.011.339.789.083c-.028.263.07.23.207.573l-.002.057-.115.053.009-.283-.173.107.008-.226c-.29.029-.35.1-.403.213l-.228.049a1.322 1.322 0 0 1 .243-.501l-.168-.062-.409.382a1.805 1.805 0 0 0 .296 1.311c-.272.207-.32 1.121-.32 1.121-1.314 1.157-1.472 1.763-3.018 2.275-.135.09-.527-.119-.731-.138l-.053-.115c.166-.089.058-.045.341-.045l.008-.226c-.271.02-.378.033-.561-.132.124-.178.063-.342.354-.441-.128-.2-.048-.097-.277-.179.153-.353.104-.235.021-.622zm-.121.222l-.113-.004.006-.17zm-.211-.46c-.127.157-.096.164-.07.394l-.053-.115c-.292-.179-.087-.147.126-.392l.166.119zm.122-.279l-.39-.183.058-.055a.582.582 0 0 1 .331.237zm-.441-.354l.06-.111.053.115zm.194-.729l-.06.111-.105-.23zm-.124.335l-.107-.173.107.173zm-.384-.352l.109.117-.115.053zm.245 1.14l.226.008-.002.057c-.224.118-.078-.027-.121.222l-.396-.013c.162-.113.181-.095.292-.273zm-.215 1.35c-.158.097-.132.102-.281-.066zm-.245-1.14c-.138.062-.079.138-.17-.006zm-.3.499l.109.117-.002.057-.166-.119zM113.801 11.483l-.004.113.117-.109zM111.424 11.517l-.004.113.117-.109zM128.761 12.38l-.166-.119-.008.226.17.006zM101.754 13.116a.534.534 0 0 1 .122-.279 1.279 1.279 0 0 1-.548-.527l.171-.051-.337-.068.119-.166c-.32-.02-.246.032-.569.094l.002-.057.171-.051.177-.22c-.288-.037-.149.05-.335-.124-.112.191-.051.151-.29.217l.013-.396a1.174 1.174 0 0 0-.571.151l.06-.111c-.169-.116-.056-.039-.339-.011l.06-.111-.113-.004-.397.043.107.173-.9-.143-.284.047.137.966a33.439 33.439 0 0 1 3.543.628zm-.484-.752l-.173.107.06-.111zm-.277-.179l.113.004-.002.057-.117.109-.055-.058zm-.842-.198l.111.06-.002.057-.115.053-.053-.115zm-1.235-.268l-.004.113zM111.117 12.242l-.051-.171-.173.107-.002.057.055.058zM80.249 11.718l-.109-.117-.06.111zM86.685 12.103l.057.002-.166-.119zM104.304 12.975l.002-.057-.275-.235c.004.235.022.108-.066.281.169.116.056.039.339.011zM127.367 13.464l-.017.509.187-.503zM85.432 12.344l.002-.057-.17-.006-.004.113zM89.378 14.456l-.331-.237-.117.109.39.183-.173.107c.094.273.085.09.047.284l.113.004c.109.169-.006.292-.081.733-.106-.151-.053-.055-.049-.228l-.109-.117c-.214.168-.147.147-.403.213l.109.117c-.085.212-.002.117-.177.22-.035-.282-.224-.489-.141-.853l-.17-.006-.015.452c-.235-.046-.116-.12-.23.105.227.033.22.025.335.124l-.17-.006-.058.055.271.348.109.117a2.788 2.788 0 0 0-.676-.079c.129.236.107.119.394.07l-.639.488-.107-.173c-.261.173-.353.878-.484.945l.158.345.516-.209-.119.166.109.117-.625.092c-.031.341-.174 1.845.732 1.778a.851.851 0 0 1-.232.162 5.508 5.508 0 0 1 .36 1.087c.046.113.302.22.554.358l-.098-.456c.21.168.332.174.439.411l.399-.1c.002.306-.031.277.328.35.069-.17.129-.131.403-.213l-.064.224c.094-.108.079-.075.122-.279l.164.175.057.002.072-.45.218.234c.107-.117.389-.075.625-.092-.009-.217-.007-.13-.102-.343.373.213.696-.473.593-.829l.119-.166.057.002.109.117-.175.164c.191.112.151.051.217.29l.057.002c.116-.143.057-.051.064-.224l.115-.053-.006.17.35-.328c-.092-.258-.016-.272-.328-.35l.345-.158c.012.279-.003.273.156.401-.072-.304.202-.276.354-.441l.068-.337-.173.107c.128-.25.236-.174.354-.441.245-.09.06-.057.281.066l.119-.166c-.11-.119-.053-.082-.279-.122l.002-.057a.522.522 0 0 1 .507.074l.057.002c-.054-.323.151-.606.315-.951l-.345.158c.141-.179.206-.225.239-.388l.173-.107a.411.411 0 0 0 .098.456c.114-.418.22-.599-.03-.793l.006-.17.218.234.008-.226.06-.111-.283-.009.004-.113c.156-.104.097-.066.284-.047.063-1.048-.412-1.168-.614-1.944-.22.066-.488.068-.631.262l-.057-.002c.094-.251.073-.22.348-.271-.116-.182-.105-.141-.102-.343-.147.014-.115.014-.286.104l-.299-1.198a1.576 1.576 0 0 0-.893-.368l-.009.282-.113-.004.009-.283.106.004a3.162 3.162 0 0 1-.611-.134l-.518.266.171-.051-.002.057a.938.938 0 0 1-.574.264c.073.47-.108.701.021 1.075l-.06.111-.115.053c-.043-.302.056-.197-.217-.29.087-.156.003-.112.171-.051l.057.002.136-.674a4.091 4.091 0 0 1-.388-.239c-.148.418-.439.377-.479.776l-.283-.009c-.163.159-.14.16-.239.388l.17.006-.064.224zm-2.185 4.452l-.053-.115.053.115zm.081-.733l.06-.111.057.002.053.115zm.396.013l-.051-.171.166.119zm.104-1.411l-.111-.06.06-.111.166.119zm.162 3.626l-.053-.115.053.115zm.098-1.241l.006-.17.111.06zm6.495-3.064l.113.004-.062.168-.166-.119zm-.279-.122c.141.085.086.233.153.514l-.331-.237c.091-.145.101-.094.179-.277zm-.239.388l.111.06-.234.218-.057-.002c.091-.145.101-.094.179-.277zm-.162 1.465l.113.004-.121.222-.057-.002zm-.188-1.138l-.053-.115.053.115zm-4.372.476l-.175.164.064-.224zm-.094-.569l-.105-.23c.111.114.061.022.105.23zm-.096-.512l.053.115-.113-.004zm-.07 2.091l-.228.049-.164-.175zm-.254.84l-.113-.004-.049-.228c.166.114.095.013.162.232zm-.1-.399c-.248-.086-.116.037-.22-.177.187.084.117.036.22.177zm-.38-2.162l.226.008.043.397c-.208-.166-.141-.19-.269-.405zm.118 3.228l.06-.111.113.004zm.751 1.213l.166.119-.166-.119zm.499.3l.06-.111.053.115zm.399-.1l-.004.113-.109-.117.175-.164.113.004zm.827-1.047l.281.066c-.175.049-.16.059-.281-.066zm.401-.156l-.339-.011.002-.057c.229-.072.171-.047.29-.217.114.162.018.096.047.284zm-.248-1.027l-.051-.171.166.119zm.269.405l-.166-.119.166.119zm-.049-.228l.06-.111.053.115zm.473-.606l-.105-.23.17.006zm-.041-.454l.115-.053.057.002-.006.17-.166-.119zm.2.799l-.053-.115.053.115zm-.013.396l.006-.17c.174.067.179.051.277.179zm.213-1.294l.113.004-.066.281c-.176-.2-.105-.06-.047-.284zm.275 1.932l-.002.057-.173.107-.109-.117.06-.111zm.375-2.759c-.102-.169-.048-.06-.047-.284l.113.004zm-.045-.341l-.057-.002.064-.224.222.121zm.011-.339l.115-.053.057.002c-.116.095-.014.123-.171.051zm.369 2.501c-.077-.174-.011-.061.013-.396.106.13.047.108.104.286zm.305-.669l-.384-.352c.263.087.274.137.384.352zm-.162-1.929l.053.115-.113-.004zm-.072.45l.057.002.053.115-.17-.006zm-.115.053l-.002.057-.117.109-.055-.058.06-.111zm-.316-.689l.06-.111.226.008c-.12.12-.08.107-.288.16zm-.97-3.144l.109.117-.006.17a.505.505 0 0 0-.279-.122zm-.136 2.371l.004-.113-.004.113zm.002-1.753l-.17-.006zm-.09-.682l-.002.057-.058.055-.105-.23zm-.183.39c.023-.179.017-.112-.047-.284.155.174.174.111.047.284zm-.52.322l.055.058c.154.057.111-.001.218.234l-.002.057-.057-.002c-.126-.155-.047-.145-.275-.235zm-.139.787l.113.004-.173.107zm-.032.961l.004-.113-.004.113zm-.134.618c.122.074.138.065.22.177l-.281-.066zm-.072.45l-.053-.115.053.115zm.938-.987c.143.146.085.078.105.23.131-.138.074-.03.064-.224a2.267 2.267 0 0 0 1.121.32c.071.217.104.18-.124.335l.162.232c-.245-.071-.209.188-.407.326l.222.121c-.135.242 0 .494.201.742l-.503-.187-.23.105c.003.216-.106.137.104.286-.177.118-.127.069-.339-.011l-.354.441c.148.262.022.493.314.746l-.288.16c.077-.212 0-.38-.264-.574l-.576.32-.002.057.339.011-.019.565-.213-.403c-.306.106-.26.217-.456.098a.416.416 0 0 0-.013.396l-.06.111-.113-.004-.273-.292c-.114.149-.072.092-.066.281-.167.11-.073.061-.283-.009l-.119.166c-.111.158-.261.145-.461.267l-.109-.117.185-.446c-.203-.061-.115 0-.222-.121l-.166-.119a1.746 1.746 0 0 0 .52-.322c-.06-.254.005-.186-.217-.29a.732.732 0 0 1 .699-.599c-.221-.258.105-.208.011-.339.264-.376.818-.495.656-.996.381-.04.994-.824 1.174-1.262zm-1.865 1.635l.119-.166.053.115zm.43-1.004l.008-.226.049.228zm.217-1.407l-.053-.115.053.115zm-.196-.912l.235-.275.109.117c-.146-.053-.266.307-.247.614a.615.615 0 0 1-.098-.456zm.005 1.527l-.107-.173.107.173zm-.277 1.518l-.053-.115.053.115zm-.068-1.36l.008-.226.109.117zm.043-1.3l.109.117-.064.224-.111-.06zm-.075.563l.113.004-.173.107zm.056 1.699c.093.159-.152.118-.288.16l.008-.226a.434.434 0 0 0 .281.066zM103.737 13.013l-.006.17.113.004-.107-.173zM92.209 12.684h-.007l.007.001v-.001zM103.566 13.064l-.06.111.17.006zM88.47 12.841l.057.002.057.002.064-.224-.113-.004zM79.71 12.605l.058-.055-.08-.085-.011.032zM88.856 13.137l-.333-.181a.681.681 0 0 1 .049.289l.021.046.263-.154zM95.299 18.387c.101.292.007.16.333.181l-.002.057-.288.16a2.504 2.504 0 0 1 .239 1.309l.232-.162c-.158.42.054.635.081.964a.744.744 0 0 0 .74-.145l-.008.226c.285-.17.073-.202.345-.158.022-.245-.092-.069.068-.337-.209-.07-.181-.082-.345.158l-.057-.002.356-.497-.284.047.477-.719-.275-.235c.576.045.809-2.054 1.048-2.567-.225-.043-.168-.001-.279-.122.229.046 1.133-1.963 1.202-2.109a3.31 3.31 0 0 0-.923-1.162l.043.397-.222-.121.162.232-.224-.064.049.228a.327.327 0 0 1-.397.043l-.241.444c-.093.206-.192.095-.008.226-.129.196-.146.159-.348.271l.102.343-.292.273.105.23-.22-.177-.119.166c-.042.13.029.106.049.228l.053.115-.281-.066a1.984 1.984 0 0 1-.371.949c.162.113.056.051.281.066l-.403.213-.008.226.057.002.348-.271.055.058-.06.111c-.049.128.019.069.102.343l-.39-.183c-.302.301-.274.624-.48.833zm2.347-4.221l.17.006-.175.164-.053-.115zm-.174 3.501l-.053-.115.053.115zm-.051-.171l-.113-.004.006-.17.107.173zm-.122-3.115l.115-.053-.117.109zm-.011.339l.111.06-.117.109zm.045.341c.127.101.039.047.105.23l-.166-.119zm-.127 3.786l-.062.168zm-.05-3.565c-.159.041-.098.026-.224-.064zm-.196 4.179l-.17-.006zm-.656.996c-.138.062-.079.138-.17-.006zm-.416-2.786l.113.004-.119.166zm-.07 2.091l-.053-.115.053.115zM105.462 13.863l-.164-.175.107.173zM137.671 14.884l-.113-.004.113.004zM87.89 13.275l-.004.113.117-.109zM88.779 13.757l.168.062.015-.452-.168-.062zM129.473 14.779l-.062.168.226.008.179-.277-.17-.006zM138.796 15.091l-.113-.004-.122.279.17.006zM139.412 15.282l.062-.168-.17-.006-.007.219.008.003zM89.743 13.676l.002-.057-.166-.119.107.173zM124.498 14.669l-.006.17.166.119c-.077-.237.031-.137-.16-.288zM87.826 13.499l-.004.113.117-.109zM139.065 15.496l.339.011.06-.111-.159-.066-.008.004v-.007l-.279-.115zM129.51 15.346l.23-.105-.105-.23-.062.168zM124.709 15.129l-.166-.119c-.112.154.003.083.166.119zM129.175 15.222l.051.171.171-.051.002-.057zM89.167 13.996l-.17-.006-.004.113.171-.051zM139.114 15.724l.051.171.053.115.057.002c-.055-.178-.039-.182-.16-.288zM139.393 15.847l.173-.107-.113-.004zM139.385 16.073l.211.46c.006-.214.099-.343-.036-.623zM89.029 14.727l.009-.283-.057-.002c-.162.194-.027.126-.232.162.11.119.053.082.279.122zM78.921 14.219l-.113-.004.113.004zM114.403 15.463l.002-.057-.17-.006-.004.113zM105.585 15.281l.113.004.109.117.006-.17-.168-.062zM133.497 16.215l.117-.109-.113-.004zM139.315 16.466l.057.002-.051-.171zM111.8 15.489l-.008.226.117-.109zM88.62 15.109l.051.171a.432.432 0 0 0 .356-.497l-.228.049c-.101.159-.068.203-.179.277zM110.442 15.5l-.115.053.053.115.062-.168zM111.395 15.758l-.06.111.111.06zM111.621 15.766l-.006.17.115-.053zM138.618 17.009c-.044-.216.029-.154-.104-.286-.085.187-.036.117-.177.22l-.002.057.111.06zM138.108 17.048l-.277-.179.047.284.228-.049zM88.553 15.446l.171-.051.002-.057-.17-.006zM113.915 16.521l-.002.057.111.06.179-.277-.164-.175c-.002.299.062.172-.124.335zM137.65 17.203c.128-.174.099-.083.008-.226zM114.546 16.26l-.113-.004-.004.113zM137.475 17.366l.224.064.057.002.002-.057-.222-.121zM138.1 17.274l-.113-.004-.006.17zM78.31 15.556l.062-.168-.17-.006zM84.356 15.758l.171-.051.002-.057-.17-.006zM87.976 15.766l-.064.224.224.064c-.056-.207-.039-.167-.16-.288zM100.124 16.173l-.113-.004-.06.111.173-.107zM132.331 17.251l-.115.053-.004.113.23-.105.002-.057zM132.67 17.262l-.113-.004-.06.111zM84.52 15.934l.119-.166-.113-.004zM87.234 15.968l.17.006-.166-.119zM84.411 15.817l-.113-.004.113.004zM110.798 16.7l-.113-.004-.06.111.173-.107zM128.02 17.616l-.158-.345-.009.283.111.06zM99.437 16.433l-.428.947a.852.852 0 0 0 .428-.947zM107.174 16.805l-.166-.119-.062.168.168.062zM99.774 16.501l.162.232c-.071-.217.005-.117-.162-.232zM114.009 17.09l.002-.057-.226-.008.107.173zM125.312 17.412l-.06.111.06-.111zM87.048 16.471l-.109-.117-.06.111.107.173zM125.248 17.636l-.062.168.171-.051zM124.963 17.683l-.121.222.23-.105zM131.857 17.914l-.06.111.173-.107zM136.094 18.056l-.004.113.117-.109zM123.662 17.696l-.06.111.06-.111zM131.397 18.125l-.222-.121.047.284zM121.963 17.752l-.06.111-.113-.004-.002.057.286-.104zM87.208 16.759l.06-.111zM124.607 18.18l.339.011c-.12-.228-.161-.195-.386-.296zM92.451 17.274l-.271-.348.1.399zM124.43 18.401l.117-.109-.104-.286-.348.271-.002.057.337.068zM83.638 16.922l.06-.111zM121.718 18.31l.113.004-.107-.173zM102.671 17.842l-.113-.004-.006.17zM86.891 17.766l.062-.168zM94.116 18.235l.06-.111zM91.123 18.078l-.004.113.117-.109zM78.012 17.696l-.113-.004-.064.224c.173-.103.095-.007.177-.22z"/><circle class="b" cx="151.681" cy="20.033" r="1.135"/><path class="b" d="M12 20.825a3.097 3.097 0 0 0 1.479-.393q.338-.278.339-1.404v-9.705a2.032 2.032 0 0 0-.334-1.392 2.516 2.516 0 0 0-1.484-.405v-.37h5.838v.37a2.939 2.939 0 0 0-1.53.361 1.62 1.62 0 0 0-.388 1.299v9.868c-.011 1.028 1.302 1.362 2.083 1.362 3.463 0 4.06-1.481 4.668-2.685h.525l-1.011 3.466h-10.183zM55.872 17.934h.356a4.803 4.803 0 0 0 .667 1.709 2.507 2.507 0 0 0 2.206 1.093 1.883 1.883 0 0 0 1.274-.404 1.327 1.327 0 0 0 .468-1.051 1.352 1.352 0 0 0-.269-.791 2.733 2.733 0 0 0-.949-.741l-1.207-.626a6.863 6.863 0 0 1-1.953-1.298 2.159 2.159 0 0 1-.626-1.543 2.219 2.219 0 0 1 .863-1.797 3.326 3.326 0 0 1 2.168-.703 4.607 4.607 0 0 1 1.256.195 6.303 6.303 0 0 0 .771.195.586.586 0 0 0 .281-.049.417.417 0 0 0 .15-.155h.259l.075 2.724h-.334a4.247 4.247 0 0 0-.581-1.474 2.197 2.197 0 0 0-1.931-.978 1.631 1.631 0 0 0-1.187.421 1.328 1.328 0 0 0-.431.985q0 .9 1.489 1.602l1.423.694q2.299 1.131 2.298 2.635a2.276 2.276 0 0 1-.952 1.886 3.987 3.987 0 0 1-2.493.731 6.373 6.373 0 0 1-1.464-.194c-.546-.13-1.346-.276-1.346.194h-.28zM29.962 20.922a2.234 2.234 0 0 0 1.409-.386 2.085 2.085 0 0 0 .338-1.422v-6.678h-1.727v-.654h1.727a6.896 6.896 0 0 1 .436-2.608 3.032 3.032 0 0 1 3.046-2.04 3.598 3.598 0 0 1 1.593.341 1.034 1.034 0 0 1 .703.917.817.817 0 0 1-.24.576.808.808 0 0 1-1.086.083 2.857 2.857 0 0 1-.502-.601l-.17-.254a1.471 1.471 0 0 0-.333-.346.881.881 0 0 0-.532-.142 1.022 1.022 0 0 0-1.035.733 2.902 2.902 0 0 0-.151 1.026v2.313h2.515v.654h-2.515v6.678a2.138 2.138 0 0 0 .309 1.412 2.876 2.876 0 0 0 1.611.396v.273h-5.394zM43.248 12.989a3.423 3.423 0 0 1 1.071 2.7h-6.225c.014 2.006.555 4.091 2.577 4.091a4.421 4.421 0 0 0 3.699-2.056l.354.116a5.542 5.542 0 0 1-1.551 2.3 3.934 3.934 0 0 1-2.782 1.056 4.063 4.063 0 0 1-3.97-4.345 5.085 5.085 0 0 1 1.202-3.387 3.897 3.897 0 0 1 3.131-1.426 3.636 3.636 0 0 1 2.495.952zm-5.114 2.074h4.262a2.262 2.262 0 0 0-2.229-2.315c-1.393 0-1.939 1.782-2.033 2.315zM53.009 11.783h-3.373v.274a2.646 2.646 0 0 1 1.363.356c.188.172.283.64.283 1.4v5.352c0 .761-.095 1.229-.283 1.401a2.643 2.643 0 0 1-1.363.357v.273h4.908v-.273a2.129 2.129 0 0 1-1.257-.362 2.225 2.225 0 0 1-.278-1.396zm.115-3.493a1.135 1.135 0 1 1-1.135-1.135 1.135 1.135 0 0 1 1.135 1.135zM27.423 11.783h-3.373v.274a2.651 2.651 0 0 1 1.364.356c.188.172.282.64.282 1.4v5.352c0 .761-.095 1.229-.282 1.401a2.648 2.648 0 0 1-1.364.357v.273h4.908v-.273a2.129 2.129 0 0 1-1.257-.362 2.225 2.225 0 0 1-.278-1.396zm.115-3.493a1.135 1.135 0 1 1-1.135-1.135 1.135 1.135 0 0 1 1.135 1.135zM66.878 21.181h81.473v.944h-81.473z"/></svg>