<svg xmlns="http://www.w3.org/2000/svg" width="168" height="32" viewBox="0 0 168 32"><defs><style>.a,.b{fill:#dddde4;}.b{fill-rule:evenodd;}</style></defs><title>goingon</title><path class="a" d="M12 20.804a3.091 3.091 0 0 0 1.476-.392q.337-.277.338-1.401v-9.684a2.027 2.027 0 0 0-.333-1.389 2.51 2.51 0 0 0-1.481-.404v-.369h5.825v.369a2.932 2.932 0 0 0-1.527.361 1.616 1.616 0 0 0-.387 1.296v9.845c-.011 1.026 1.299 1.359 2.078 1.359 3.455 0 4.051-1.478 4.657-2.679h.524l-1.009 3.458h-10.16zM55.774 17.92h.356a4.792 4.792 0 0 0 .665 1.705 2.502 2.502 0 0 0 2.201 1.091 1.879 1.879 0 0 0 1.272-.403 1.324 1.324 0 0 0 .467-1.048 1.349 1.349 0 0 0-.269-.789 2.727 2.727 0 0 0-.947-.74l-1.205-.624a6.848 6.848 0 0 1-1.948-1.295 2.154 2.154 0 0 1-.625-1.54 2.214 2.214 0 0 1 .861-1.793 3.319 3.319 0 0 1 2.163-.701 4.597 4.597 0 0 1 1.253.195 6.289 6.289 0 0 0 .77.195.585.585 0 0 0 .28-.049.416.416 0 0 0 .15-.155h.259l.075 2.718h-.334a4.238 4.238 0 0 0-.58-1.471 2.192 2.192 0 0 0-1.927-.975 1.627 1.627 0 0 0-1.184.42 1.326 1.326 0 0 0-.43.983q0 .898 1.485 1.598l1.42.692q2.293 1.128 2.292 2.629a2.271 2.271 0 0 1-.95 1.882 3.978 3.978 0 0 1-2.487.73 6.359 6.359 0 0 1-1.461-.194c-.545-.13-1.343-.275-1.343.194h-.279zM29.921 20.902a2.229 2.229 0 0 0 1.406-.385 2.08 2.08 0 0 0 .337-1.418v-6.663h-1.723v-.653h1.723a6.881 6.881 0 0 1 .435-2.602 3.026 3.026 0 0 1 3.039-2.035 3.59 3.59 0 0 1 1.59.341 1.032 1.032 0 0 1 .701.915.815.815 0 0 1-.24.575.807.807 0 0 1-1.083.083 2.851 2.851 0 0 1-.501-.599l-.17-.254a1.468 1.468 0 0 0-.332-.346.88.88 0 0 0-.531-.141 1.019 1.019 0 0 0-1.033.731 2.896 2.896 0 0 0-.151 1.023v2.308h2.509v.653h-2.509v6.663a2.133 2.133 0 0 0 .308 1.408 2.87 2.87 0 0 0 1.607.395v.272h-5.382zM43.178 12.986a3.416 3.416 0 0 1 1.068 2.694h-6.211c.014 2.002.554 4.082 2.571 4.082a4.411 4.411 0 0 0 3.69-2.051l.353.116a5.53 5.53 0 0 1-1.548 2.294 3.925 3.925 0 0 1-2.776 1.053 4.054 4.054 0 0 1-3.961-4.336 5.073 5.073 0 0 1 1.2-3.38 3.889 3.889 0 0 1 3.124-1.423 3.628 3.628 0 0 1 2.489.95zm-5.102 2.069h4.253a2.257 2.257 0 0 0-2.224-2.309c-1.39 0-1.934 1.778-2.028 2.309zM52.918 11.782h-3.365v.274a2.64 2.64 0 0 1 1.36.355c.188.171.282.639.282 1.397v5.34c0 .759-.094 1.227-.282 1.398a2.637 2.637 0 0 1-1.36.356v.272h4.897v-.272a2.124 2.124 0 0 1-1.255-.361 2.22 2.22 0 0 1-.277-1.393zm.115-3.485a1.133 1.133 0 1 1-1.132-1.132 1.132 1.132 0 0 1 1.132 1.132zM27.388 11.782h-3.365v.274a2.645 2.645 0 0 1 1.361.355c.187.171.282.639.282 1.397v5.34c0 .759-.094 1.227-.282 1.398a2.642 2.642 0 0 1-1.361.356v.272h4.897v-.272a2.124 2.124 0 0 1-1.255-.361 2.22 2.22 0 0 1-.277-1.393zm.115-3.485a1.132 1.132 0 1 1-1.132-1.132 1.132 1.132 0 0 1 1.132 1.132z"/><circle class="a" cx="151.368" cy="20.014" r="1.132"/><path class="a" d="M66.755 21.16h81.291v.942h-81.291z"/><path class="b" d="M82.664 19.832c.108.148.041.211.039.47l.141.002.008-.469a.327.327 0 0 0 .187.05c.306.039.322-.175.569-.319l-.138-.19.186.097a1.017 1.017 0 0 0 .195-.419c.133-.159.026-.213-.087-.377l.048-.046.236-.043-.144.185.094.002.044.142c.132-.365.403-.597.345-.933l.28.099.052-.281-.189.091c.123-.32.401-.541-.084-.565l-.045-.095c.279-.081.282-.134.516.009l.049-.14-.091-.142c-.249.02-.138.003-.331.135l-.141-.002.241-.371.138.19.049-.14c.088-.117.04-.035-.042-.282l.235.004.001-.047-.187-.05-.045-.095.189-.044-.09-.236-.05.187-.185-.144.146-.279.001-.047c-.272.076-.197.117-.333.229.072-.313.185-.539-.082-.659l.191-.184c-.24.027-.2.032-.331.135l.011-.61-.097.186-.047-.001a2.824 2.824 0 0 0-1.156-1.006l-.093-.049c-.186-.144-.709-.217-.836-.531.258-.093.365-.364.524-.413l.191-.184c.098-.283.255-.246.427-.227a1.694 1.694 0 0 0 .155-.795c.137.096.136.093.183.285l.047.001c.066-.24.221-.307.054-.422l.328.053.05-.187c.113-.186-.018-.133-.135-.331.325.158.865-.379.626-.881l.235.004c.195-.332.18-1.282.402-1.495l-.234-.051-.145.232-.047-.001-.044-.142c.205-.032.123.033.238-.184l-.189.044c-.012-.148-.01-.047.145-.232l-.094-.002.004-.235c.135.092.067.05.234.051l.049-.093c-.187-.033-.14.001-.233-.098l-.133-.472c-.22-.043-.198 0-.377.087l.051-.234c-.465-.637-3.124-1.286-3.407-1.186-.485.171-.547.384-1.176.12-.517.076-.353-.561-.503-.76-.12.122-.126.127-.378.134-.064.394-.453 1.055-.303 1.215l-.001.047-.328-.053-.047-.001a7.656 7.656 0 0 0 .076 1.034.835.835 0 0 0-.416.775.538.538 0 0 1 .26.067c-.113.05-.248.055-.331.135l-.54 1.352a4.146 4.146 0 0 1 .461.478l-.282-.005-.119.123.023.016-.036-.001-.155.185c.123.024.073-.03.186.097-.399.081-.387.665-.581 1.023l-.002.141.143-.138c.088.107.053.102.089.283l-.139-.096a6.807 6.807 0 0 1-.394 1.026l.139.096c.084.322-.2.5-.061.797a1.106 1.106 0 0 1-.28-.099c.039.268-.101.477-.204.935l.38-.228-.003.188a.891.891 0 0 1-.424.086c.002.306.019.477-.151.608l-.003.188.189-.091-.287.324-.004.235a.628.628 0 0 0 .237-.137l.092.096c-.284.093-.061.193-.38.275a.628.628 0 0 0 .137.237l-.095.045.002-.094-.246.653.373.147-.376-.007-.049.14.282.005c-.068.174-.14.176-.006.329-.116.085-.092.046-.329.041l.23.286-.329.041c.034.238.128.222-.053.375l.14.049.134.378c-.121-.096-.093-.054-.137-.237l-.189.091a.869.869 0 0 0 .086.471l-.189.044c.01.399-.008.273.178.567l-.233-.098.091.142-.142.044c-.032.41.011.326.129.66-.153.064-.029.117-.238.184l.327.1-.043-.236.188.003-.001.047-.197.513-.095.045.051-.234c-.091-.077-.063-.065-.233-.098l-.049.093c.137.095.136.093.183.285l-.235-.004c.045.2.315.59.081.753l.003-.188-.141-.002c-.04.289-.069.343.087.377l-.191.184.04.423c.181.114.134.002.325.193-.153.059-.277.025-.325-.193-.287.337-.144.942-.119 1.453l.094.002a.928.928 0 0 0 .009-.516l.141.002c.02.33-.044.345.084.565l-.002.141c-.263-.154-.165-.091-.514-.15l.273.474-.096.092c-.076-.168.062-.137-.184-.238.067.231.039.179-.008.469.341-.124.306.23.518-.085a.327.327 0 0 0 .187.05c.121.259-.001.097.281.052l.001-.047-.186-.097-.045-.095c.392.148.439.103.698.341.143-.146.087-.07.099-.28l.371.241.047.001.049-.14-.095.045c-.074-.142.006-.102.006-.329.073.094.063.065.09.236.164-.085.128-.106.193-.278l-.141-.002c.072-.186-.001-.11.143-.138l.053-.375-.138-.19-.052.281-.189.044-.091-.142a.418.418 0 0 1 .237-.137c-.131-.155-.08-.072-.281-.052l-.047-.001.003-.188.562.057.049-.14-.189.044c.123-.385.355-.646.208-1.17.18.022.108-.078.285-.183l.091.189c-.139.087-.049.04-.235.043l.044.142c.284-.051.279.075.277.287.179-.046.235-.053.332-.182l.277.287-.089-.283a4.17 4.17 0 0 0 2.695-1.08l.002-.141.281.052-.088-.33.001-.047.047.001.041.329a1.221 1.221 0 0 0 .571-.46c.217-.102.146-.037.051-.234.155.049.146.085.281.052l.094.002-.092-.096-.14-.049a.411.411 0 0 1 .375.053c.286-.432.554-.419.86-.877-.132-.078-.074-.073-.189.091l-.141-.002c.132-.28.318-.387.341-.698zm1.935-3.253l-.142.091.049-.093zm-.04-.376l-.049.14-.091-.142zm-.214 1.499l-.045-.095.045.095zm-.134-.378l.091.142zm.034-1.924l.091.142-.142.091-.047-.001zm-.225 2.109l.047.001-.049.14zm.083.612l.045.095.092.096-.001.047-.235-.004zm-.14-.049l-.045-.095.045.095zm-.008.469l-.139-.096.139.096zm-.315-.804l.094.002-.097.186zm1.185-8.712l.047.001-.05.187-.047-.001zm-.1.374l.047.001-.096.139zm-.052.281l-.139-.096.094.002zm-.244-2.164l.139.096-.001.047-.141-.002zm-7.09 2.74l.049-.14.094.002zm-2.294 10.383l.002-.094-.002.094zm.09.236l.002-.141.047.001zm-.413 2.153l-.044-.189.141.002zm.013 1.972l-.14-.049.096-.092.047.001zm.134-2.298l.05-.187.094.002c.098.203.023.102.233.098-.119.112-.257.069-.377.087zm.231.239l.094.002.045.095-.139-.096zm.039.47l.139.096zm.12-1.5l-.186-.097.098-.233a.486.486 0 0 1 .137.237zm-.011-2.066l-.092-.096.049-.093.047.001.091.142zm1.183 4.857c-.026.093.052.058-.096.139zm6.323-7.214l.049-.093-.049.093zm.296 1.883l.141.002c-.114.053-.064.115-.141-.003zm.333-.276l.047.001-.096.139zm-.232-.145l-.09-.236.137.237zm-.772-4.192l.094.002.045.095-.095.045-.092-.096zm-.12-1.176l-.049.093zm-.109.89l-.007.422-.047-.001-.133-.425zm.129-2.017l-.044-.189.093.049zm-.034-.752l.002-.141.091.142zm.156-.889l-.092-.096.048-.046.047.001zm.495 1.229c.112.064.053.056.138.19-.11-.084-.08-.048-.138-.19zm.822-1.394l-.045-.095.045.095zm.326.147l-.142.091-.092-.096.049-.093zm-1.069-3.305l.092.096-.095.045zm-.004.235l.094.002.045.095-.142.091zm-.187-.05l-.002.094zm-.749-.154l.047.001.045.095-.142.044zm-.23-.286l.044.189-.095.045zm.133.425l-.049.14-.047-.001-.046-.048.049-.093zm-.514-.15l.094.002c-.093.139-.009.079-.19.138zm-.937-.11l.047.001-.097.186zm-.231-.239l.092.096c-.098.101-.065.09-.237.137l.145-.232zm-.24.278l.092.096-.049.14c-.088-.128-.056-.079-.043-.236zm-.007.376l-.139-.096zm-.445-1.416l-.002.094zm-.362 1.919l-.045-.095.045.095zm.384-.463l.704.012-.041-.329.091.189.093.049c.149-.234.152-.311.474-.273l-.001.047-.141-.002-.095.092-.003.188c.203-.062.159-.09.33-.088.111-.149.072-.148.006-.329l.142-.091.047.001c-.033.238-.073.243.087.377.282.306.706.115.94-.031a.716.716 0 0 0 .184.238c.132.112.162.065.329-.041.09.139.047.055-.004.235.367-.063.338-.188.663-.317l-.1.327c.177.021.096-.021.237-.137l.088.33.047.001.097-.186.095-.045c-.123 1.207-1.044 1.554-1.118 2.187-.075.073-.053.048-.093-.049a1.904 1.904 0 0 0-.482.743l-.002.094-.042-.282-.047-.001-.003.188-.186-.097-.049.14.091.142-.282-.005-.049.093-.002.141.191-.184.047.001c-.051.42-.384.539-.576.694l-.002.094-.047-.001.146-.279.002-.141-.235.043-.007.376-.095.045.004-.235-.047-.001a.65.65 0 0 0-.059.703l-.235.043c.11-.171.02-.073.006-.329a.607.607 0 0 0-.148.42l-.282.042.096-.139a.463.463 0 0 0-.333.276c-.195-.076-.116.007-.184-.191l-.096.092a.797.797 0 0 0-.291.558l-.188-.003.099-.28-.235-.004c0 .211-.028.176-.24.324l.18.426-.096.139-.095.045c.095-.36-.125-.322-.13-.613l-.141-.002-.1.327.182.332c-.193-.167-.047-.145-.28-.099l.049-.14-.142.044c-.166-.083-.089-.279-.226-.52.273-.102.484-1.143.449-1.495-.106-1.044.952-2.866 1.054-3.879zm1.889 4.775l-.047-.001-.138-.19c.178.027.137.036.237-.137l.094.002-.147.326zm.063 1.785l-.142.044.05-.187.047.001zm-.246-2.07l.002-.141.091.142zm-.238.184l.003-.188.094.002zm-.078 1.783l.049-.14-.049.14zm-.209-1.459l-.091-.142.091.142zm-.898.36l-.094-.002.002-.141.091.142zm-.475.32l-.047-.001-.09-.236zm-.574.6l.05-.187c.036.131.023.081-.05.187zm-.115-4.181l.093.049-.001.047-.095.045-.045-.095zm-.164 1.312l-.096.092-.093-.049.049-.093zm-.133-3.148l-.096.092-.044-.142zm-.267 4.549l.091.142-.094-.002zm-.129-.707l.047.001.042.282-.095.045-.047-.001zm-.041-3.005l-.139-.096zm-.065 3.708l-.049.14.002-.141zm.083.612l.044.189-.05.187-.095.045-.091-.189.047.001-.136-.284c.159.072.066.041.281.052zm.072 1.269l-.002.094c-.207-.068-.096.033-.185-.144zm-.496 1.494l-.045-.095.045.095zm-.156.842l.094.002c-.163.094-.09.089-.186-.097zm-.228-.38l.09.236-.092-.096zm-.008.469l.047.001.092.096-.002.141-.188-.003zm-.111.984l-.091-.142.188.003-.001.047zm.077.987l-.189.044-.044-.142zm-.068-1.457l.234.051-.096.139zm.098-.233l-.049.14-.138-.143zm-.166-1.224l-.045-.095.045.095zm-.137-2.913l.044.142.044.142c-.123-.123-.147-.018-.089-.283zm.048 2.63l-.096.139.049-.14zm-.168 1.546l.049-.093.094.002.045.095-.189.044zm-.102 3.144l.139.096-.003.188-.047-.001c-.138-.151-.085-.073-.089-.283zm.006-.329l.139.096-.139-.096zm.02-1.126l-.045-.095.045.095zm.054-5.774l.043.236c-.149-.164-.088-.049-.043-.236zm-.183 2.391l.095-.045.047.001-.096.139-.047-.001zm-.117 3.989l.096-.139.094.002c-.093.139-.009.079-.19.138zm.182.332c-.086.169-.053.124-.238.184l.097-.186zm-.104-2.115l-.045-.095.045.095zm.032-1.831l-.045-.095.045.095zm-.06.75l-.141-.002zm-.146 3.002l-.045-.095.045.095zm-.053.328l.047.001-.049.14zm-.352-4.044l.141.002-.141-.002zm.012 7.371l-.235-.004.003-.188.186.097zm-.142-5.308l-.045-.095.045.095zm-.249.794l.141.002-.002.094-.142.044zm.315 3.48l-.003.188c-.061.085-.045-.095-.045-.095l-.368-.429zm-.536 1.117l.049-.093.094.002-.142.091zm.055-.469l.049-.093.047.001.045.095zm.199 2.022l.182.332c-.211.011-.18-.157-.182-.332zm.144-.185l-.047-.001.102-.468.046.048.181.379c-.187-.083-.145-.134-.282.042zm.356-9.619c.134.086.116.093.184.238-.169-.086-.124-.053-.184-.238zm.082.706l.139.096-.139-.096zm.065 4.368l.094.002-.142.091zm.074 3.851l-.088-.33.094.002.041.329zm.053-.375l.002-.094-.002.094zm.063-.938l.002-.094-.002.094zm-.209-1.459l.373.147-.001.047-.049.093-.047-.001zm.35 1.462c.089-.105.089-.062.145-.232l-.142.044-.044-.189.143-.138.231.192c-.095.209-.076.266-.334.323zm.427-.227l.049-.093.045.095zm.189-.044l.181.379a.425.425 0 0 1-.181-.379zm.223.661l-.095.045.098-.233zm.471-.086l-.187-.05.049-.093.139.096zm.022-1.267l.05-.187.094.002zm.76-.503l-.045-.095.045.095zm.138.19l-.047-.001.002-.094.142-.091.044.142zm.186.097l.049-.14.047.001-.096.139zm.184.238l-.047-.001.05-.187.044.189zm.144-.185l.049-.093-.049.093zm.805-.409l-.324-.24c.139-.138.048-.072.236-.09l.007-.375.094.002a4.582 4.582 0 0 0-.012.704zm-.414-.477l.05-.187.093.049zm.524-.46l.049-.093.045.095zm.125.894l-.092-.096.048-.046.187.05zm.323.334l-.044-.142.139.096zm.24-.324l-.045-.095.045.095zm-.003.188c.121.096.093.054.137.237zm1.087-3.127l-.056.515c-.158-.082-.093-.066-.184-.191a.657.657 0 0 0-.16.36l.013.013-.02.018-.03.169-.047-.001.077-.168.007-.031-.079-.082c-.26.253-.508.356-.529.742l-.376.04-.049.14.188.003-.286.23-.002.094-.043-.236c-.192.156-.226.288-.428.321l.091.142c-.447.015-.447.315-.804.315l-.055.469c-.08-.103-.082-.128-.088-.33l-.094-.002c-.045.252.051.307-.195.419l.099-.28-.427.227-.006.329c-.115-.127-.068-.133-.278-.193a2.682 2.682 0 0 1-.665.458l-.093-.049-.286.23-.001.047c.196.065.084.043.235.004l-.006.329c-.333-.128-.216-.308-.509-.431l-.004.235-.189.044-.047-.001.144-.185.007-.375c-.169.076-.112.009-.191.184l-.14-.049c.178-.19.286-.133.382-.369l-.142.091a.281.281 0 0 1 .241-.371l.001-.047c-.234-.19-.341-.045-.517.038l-.047-.001.145-.232a.719.719 0 0 1-.228-.38l.188.003-.096.139.324.24.188.003c.139-.837.358-1.363.078-1.783.412-.108.195-.71.3-1.075a27.234 27.234 0 0 1 .665-3.134l-.14-.049-.044-.142c.334.092.304.113.516.009l.138.19-.234-.051-.001.047c.125.093.077.059.234.051l-.005.282a.397.397 0 0 1 .236-.09l.095-.045-.142.091c.098.246.064.158.326.147l.003-.188.044.189c.141-.052.218-.348.196-.466l.185.144c.042.088.247-.067.518-.085l.053-.328c.138.032.199.127.371.241-.056-.235-.107-.232-.228-.38.209.078.192.141.373.147l.046.048.098-.233-.006.329a1.339 1.339 0 0 0 .991-.264c.023.23-.006.291.18.426l-.04-.423.047.001.14.049-.053.375c.43.084.565.194.94-.031-.06.103-.052.116-.144.185.107.193.017.091.28.099.02.288.11.239.273.474-.132-.106-.053 1.066-.162 1.218a4.49 4.49 0 0 0-.872 1.534zm.062 1.832l-.047-.001.003-.188.139.096zm.109-.89l.049-.093.047.001.045.095-.095.045zm.08.8l.049-.093-.049.093zm.198-.56l-.189.091.003-.188.187.05zm.029-1.643l.235.004c-.127.11-.112.113-.235-.004zM77.881 8.716a.21.21 0 0 1-.025-.063l.025.063zM119.838 15.082l-.056.515c.463.756 1.213.411 1.919.315-.143.24.05.128-.008.469l.045.095c-.2-.059-.12-.035-.232-.145-.109.409-.008.604-.205.982.124.111.119.045.184.238-.374-.037-.277.72-.205.982-.148.068-.089.339.002.657l.033.001a.172.172 0 0 0-.028.018 3.335 3.335 0 0 1 .199.924c.459.143.576.01.939.016l.095-.045-.191.184.187.05c.225.065.089.003.236-.09l.091.189.093.049c.055-.323.166-.3.335-.37l.049-.14-.282.042.001-.047.285-.183-.469-.008c.152-.156.122-.127.331-.135l.001-.047-.232-.145c-.154-.166-.063-.213.053-.375l-.093-.049-.144.185-.141-.002a.74.74 0 0 0 .013-.751l.42.148.244-.512-.189.091a9.94 9.94 0 0 0 .029-1.69c.149-.012.093-.009.234.051.104-.26.136-.359.382-.369l.002-.141c-.233.02-.183-.012-.284.136-.066-.121.414-.557.391-.885.288-.019.135-.049.376.007l.054-.422.188.003c-.045.283.003.249.324.24a.482.482 0 0 0 .147-.373l.047.001.043.236a2.856 2.856 0 0 1 .564-.037c.092-.135.05-.067.051-.234.28.054.176-.025.052-.281l.049-.14.047.001.086.471.186.097.002-.094c.17-.136.103-.084.052-.281l.096-.139.326.147.192-.231.136.284c-.323.31-.793 1.353-.544 1.587l-.094-.002c-.411.458.231 1.891.05 2.489.172.203.2.084.23.286a1.418 1.418 0 0 1 1.172.114l.049-.093.141.002c.607-.089.843-.546 1.324-.54l.244-.559c.121.017.094.017.233.098l.006-.329c.197-.088.341-.09.429-.368a2.146 2.146 0 0 1 .03.986c.101.126.03.093.232.145l.091.189-.044-.189.19-.138-.055.469c.27.03.331-.074.42.148l.189-.091-.138-.143c.085-.08.11-.082.377-.087.083.151.103.094.135.331.353-.068.943.079.949-.547a1.852 1.852 0 0 1 .612-.083l.041.329c.124-.059.183-.266.236-.09l.193-.325.096-.092c-.037.293-.117.155.041.329.06-.294.015-.292.24-.324-.02-.233.012-.183-.136-.284l.096-.092c.196.124.255-.004.371.288.145-.103.081-.084.236-.09l.006-.329-.092-.096-.051.234-.094-.002-.086-.424-.282.042c-.078-.07.063-.045.095-.045l.006-.329c-.189.091-.091.008-.097.186l-.189.091-.044-.189a2.871 2.871 0 0 1-.757.315l.091.189c-.119-.002-.09.05-.138-.143a.378.378 0 0 0-.193.278l.094.002.091.142-.235-.004-.04-.423c-.16.077-.627.066-.851.314a.538.538 0 0 1-.133-.425l-.146.279-.047-.001.003-.188-.188-.003-.092-.096.142-.044.051-.234.374.1c-.088-.147-.097-.136-.278-.193l.003-.188a.674.674 0 0 1 .38-.228l-.14-.049-.047-.001c.15-.438.439-.68.394-1.073l.138.143a3.604 3.604 0 0 0 .494-1.4c-.189-.147-.205-.118-.229-.333l-.234-.051a.735.735 0 0 0-.053.375l-.513-.197-.045-.095.422.054.001-.047-.278-.193-.188-.003.045.095a.554.554 0 0 0-.197.513c-.073.069-.342.21-.331.135-.225.092-.475.383-.387.651-.179.163-.03.064-.282.042l.228.38-.142.044-.183-.285c-.229.221-.662.562-.72.926l-.282-.005c.085.165.088.102.231.192l-.188-.003c-.073.135-.067.069-.051.234l-.092-.096c-.237.063-.35.574-.622.646-.086.192.001.119-.189.091l-.003.188c-.316-.068-.563.104-.991.311l-.319-.569c.232-.176.221-.453.29-.464l-.091-.142-.144.185-.002.094-.047-.001c.067-.347.321-.556.153-.702l.198-.56a.433.433 0 0 1-.056.515l.142-.044a9.211 9.211 0 0 0 .509-2.245l-.093-.049c-.074.15-.045.059-.052.281l-.231-.192c-.175.188-.161.202-.281-.052l-.191.184a.413.413 0 0 1-.041-.329l-.142.091c.048.263.068.204.229.333l-.283.089.002-.094c-.164-.156-.114-.294-.039-.47l-.14-.049-.045-.095-.146.279c-.222-.106-.306-.007-.37-.335a.604.604 0 0 1-.613.177c-.178.147-.13.08-.098.233a1.089 1.089 0 0 1-.429.121l.004.013-.033-.012a.136.136 0 0 1-.107-.038l.107.038.029-.001-.085-.271-.427.274-.047-.001a.799.799 0 0 0-.133-.425c.172-.182.384-.074.475-.32a.443.443 0 0 1-.233-.098l.053-.328.278.193-.089-.283.049-.093.138.143.096-.092c.126-.077.02-.131-.042-.282l.14.049-.129-.707.422.054a4.981 4.981 0 0 1 .293-.652l-.235-.004c.125-.089.119-.08.282-.042l1.178-2.937.047.001c.077.099.073.094.089.283l.189-.044-.145.232.19-.138.047.001c-.039.239-.073.16-.191.184.072.324.204.457.461.478-.1.107-.164.09-.331.135a.692.692 0 0 0 .278.193c-.123.09-.055.042-.282.042a3.201 3.201 0 0 1 .26 1.369l.136.141-.143.138.004-.253a1.035 1.035 0 0 1-.199.625l-.001.047.235.004-.049.093-.095.045.188.003-.098.233.848-.173c.092-.181-.091-.376-.179-.52l.003-.188a.605.605 0 0 1 .322.381c.255-.226.239-.522.387-.651l-.044-.189c-.378-.084-.218-.095-.087-.377l-.142.044c.061-.242.094-.269.334-.323l-.092-.096-.139-.096-.045-.095.141.002.096-.092-.185-.144c-.04-.081.033-.108.146-.279l-.141-.002a.646.646 0 0 0 .092-.236l-.133-.094.134.089a2.727 2.727 0 0 0-.431-1.879c-.087-.296-.156-.215-.372-.194l-.044-.142-.286.23.003-.188-.047-.001-.147.326.003-.188-.092-.096-.147.373-.043-.235c-.325.147-.214.154-.516-.009l-.096.139-.002.141-.185-.144c-.115.224-.162.182-.331.135l-.007.376-.186-.097c-.15.222-.506.586-.342.745l-.188-.003-.386.604c.181.113.107.062.282-.042l.047.001c-.077.17-.136.193-.287.277l-.044-.142a19.194 19.194 0 0 0-2.097 4.471l-.046-.048c-.208.179-.333.658-.485.884l-.001.047c.182-.07.161-.06.239-.231l.095-.045-.099.28c-.339.194-.48.281-.848.173l-.097.186-.093-.049c-.242.065-.312.126-.241.371l-.328-.053c-.267-.043-.249.062-.194.325-.138-.124-.093-.126-.089-.283zm1.692 2.565l.049-.093-.049.093zm12.494-.298l.047.001.044.142-.142.044zm-.331.135l-.049.093-.045-.095zm-.146.279l.091.142-.001.047-.095.045zm-.372-.194l-.049.14-.045-.095zm-.151.561l-.047-.001-.09-.236c.121.096.093.054.137.237zm-.234-.051l-.049.093-.045-.095zm-.477.414l-.002.094zm-.018-4.32l.094.002.045.095-.049.093-.096.092zm-.142.044l-.049.093-.045-.095zm-.357 1.637l.047.001-.096.092zm-.399-1.322l-.001.047-.094-.002a.419.419 0 0 1-.044-.189zm-.421 2.622l.094.002c-.068.156-.029.097-.144.185zm.022 1.456l-.091-.189.091.189zm-.958-1.613l.049-.14.046.048zm-.044-.189l.002-.141.091.142zm.052-.281l-.049.093-.045-.095zm-.082-.706l-.005.282-.093-.049zm-.024 1.361l-.049.093-.045-.095zm-.62.553l-.049.093-.045-.095zm-.312-.944l.049-.093.14.049-.002.094-.188-.003zm-.64 1.679l-.001.047c-.131-.036-.078.019-.185-.144zm-.358-.992l.091.142-.094-.002zm-.143.138l.093.049-.096.092zm-.219-3.572l-.045-.095.045.095zm-.199.654l.047.001-.002.141-.092-.096zm.135.331l-.1.327-.047-.001-.181-.379.328.053zm-.336.417l-.055.469-.141-.002zm-.263-1.084c-.11-.084-.08-.048-.138-.19.139.093.079.009.138.19zm-.323-.334l.047.001-.049.14zm-.136-.284l-.139-.096zm-1.081.075l-.049.093zm-.528.648l-.049.093-.045-.095zm2.668-4.883l.139.096zm1.291-1.339l-.049.14zm-.327 2.577c.094.096.066.048.09.236-.125-.136-.079-.075-.09-.236zm.175-1.969c-.177-.068-.097 0-.185-.144zm-.189.091l.235.004-.003.188-.236.043-.047-.001zm-.264 1.686l.143-.138.094.002-.146.279-.095.045zm-.063.891l.094.002-.002.141-.141-.002zm-.036-3.334l-.096.092.049-.093zm-.115-1.457l.092.096-.095.045zm-.159 3.753l.094.002-.097.186zm-.108-1.88l-.097.186-.047-.001.097-.186zm-.229-.333c.096.099.086.123.088.33l-.095.045zm-1.062-1.004l.094.002-.051.234-.047-.001-.047-.001zm-.3 1.028l.141.002-.001.047-.189.091zm-.18-.426l-.091-.142.091.142zm-.112 1.031c-.114.053-.064.115-.141-.002zm-.311 1.685l-.002.094zm-.731-1.14l-.045-.095.045.095zm-.141-.002l.047.001-.096.139zm-.343 3.515l.049-.093.047.001.044.142-.141-.002zm-.06.75l.138.19-.19.138-.047-.001c.092-.202.097-.056.099-.327zm-.644 1.914l.002-.094-.002.094zm.035-2.018l.094.002-.142.091zm-.367 2.2l-.096.092-.045-.095.048-.046zm-.092-2.772l-.049.093-.045-.095zm-.266 4.503l.095-.045-.096.092zm-1.029 2.47l.002-.094-.002.094zm.574-.6l.002-.094.141.002-.004.235-.282.042c.084-.182.138-.149.144-.185zm-.387-4.749c-.11-.084-.08-.048-.138-.19.139.093.079.009.137.19zm-.33 5.441l-.044-.189.092.096zm.113-3.801l-.139-.096zm-.206-1.647l.091.142-.094-.002zM127.26 6.761l-.094-.002.094.002zM135.658 20.57l-.09-.236c.222.131.255.035.325.193a1.454 1.454 0 0 0 .474-.273l.043.236.093.049.143-.138c.296-.031.2-.092.194-.372l-.327-.1.002-.141c.139-.138.048-.072.236-.09-.033-.343-.01-1.019-.168-1.13l.329-.041-.091-.142.187.05a2.723 2.723 0 0 1 .06-.75c-.097-.08-.091-.076-.28-.099a.989.989 0 0 0 .485-.884c.121-.232.046-.298-.088-.33a4.175 4.175 0 0 1 .342-.745l-.188-.003.007-.375.091.142.282-.042.006-.329c.082-.17-.067-.087-.186-.097l.003-.188.279.146.099-.28-.14-.049c.093-.259.08-.141.284-.136a5.42 5.42 0 0 1 .404-1.636c.018-.21-.058-.303-.182-.332l.002-.141c.159.101.126.018.184.238l.139.096a1.262 1.262 0 0 1 .438-.884l-.187-.05c.349-.337.264-.461.485-.884l-.375-.053.146-.279.14.049a8.187 8.187 0 0 0 .876-1.769c-.077-.224-.076-.274-.275-.38l-.045-.095.329.006c-.121-.206-.038-.145-.279-.146l.096-.139.233.098-.04-.376.138.143.049-.093c-.146-.181-.162-.144-.133-.425-.142.088-.079.007-.144.185-.487-.088-.52-.112-.889-.203l-.189.091a2.692 2.692 0 0 0-.35 1.215l-.092-.096c-.252.268-.175.771-.349 1.168-.018-.496-.95 1.672-1.018 1.86l.142-.091a4.059 4.059 0 0 1-.586 1.304l-.002.141-.138-.19c.037.311.058.197.133.472l-.184-.191-.141-.002a1.949 1.949 0 0 1-.297.887c.09.173-.024.079.185.144-.127.157-.123.102-.146.279-.7.032-1.139 4.768-1.093 6.131a2.402 2.402 0 0 0 .609.104zm4.2-11.993l.184.191-.051.234-.142.044c.098-.212.061-.218.008-.469zm-.14-.049l-.049.093-.045-.095zm-1.001 3.551l-.141-.002.001-.047.143-.138.047.001zm.246-.653l-.045-.095.094.002zm.066-1.079a.477.477 0 0 1-.182-.332zm-.291.558l.422.007c-.149.137-.246.102-.425.133l-.045-.095zm-.19.138l.279.146-.284.136-.047-.001zm-.342.745l-.049.093-.045-.095zm-.276 2.343l.047.001-.143.138zm-.278-.24l.094.002-.007.375c-.161-.076-.137-.174-.087-.377zm-.454 1.823l-.049.093zm-.156.889l-.139-.096zm-.207 1.076l.094.002-.143.138zm-.007.422l.047.001.044.142-.14-.049zm-.319 2.154l.187.05-.001.047-.094-.002-.096.092zm-.035-.705l-.049.093zm-.342.745l-.049.093-.045-.095zm-.464-.337c-.095.08-.01.102-.142.044l.095-.045zm-.172-3.571l.094.002-.142.091zm-.252 3.705l.096-.139.091.142-.001.047-.188-.003zm.042.282l-.139-.096.139.096zM84.892 7.852l-.094-.002.094.002zM128.962 8.809l-.006-.007-.001.005.007.002zM79.632 7.948l-.002.094.096-.092zM127.318 8.827l.091.142zM83.15 8.103l-.141-.002.045.095zM84.974 8.511l.141.002.049-.14-.141-.002zM129.081 10.032l-.045-.095-.049.093zM127.66 10.758l-.001.029.003-.027zM77.52 10.587l-.231-.239c-.036.29-.074.229.231.239zM109.762 19.367l.138.19-.001.047c-.12-.059-.075.046-.138-.143l-.047-.001c.042.445.236.555.408.852a.593.593 0 0 0 .378-.134l-.004.235.75.06c.053.338.159.254.18.426l.045.095c.162-.093.209-.077.287-.277l-.328-.053.19-.138-.414-.477.238-.184c.008.216.004.157-.1.327.578-.162.293-.966.495-1.447.608-1.449.362-2.478 1.051-3.738-.024-.408-.167-.129-.227-.473.153.1 1.98-.062 2.167-.432l.325.193.238-.184c-.037-.231.037-.14-.137-.237l.049-.093c.177.068.097 0 .185.144.249-.075.096-.107.238-.184l.049-.093c-.211.023-.16.036-.328-.053l.15-.514-.191.184-.141-.002-.044-.189.044.142c.085-.119.068-.205-.088-.33-.036.131.019.078-.144.185l.003-.188-.286.23.05-.187c-.104.095-.092.062-.145.232-.192-.111-.067-.086-.374-.1-.15.124-.078.112-.237.137l.091.142-.004.235-.369-.382c.022.161-.049.156-.1.374l-.188-.003c.005-.844.485-1.307.507-2.151l-.234-.051.044.142c-.149-.163-.088-.049-.043-.235l-.33.088c-.168-.315-.241-.151-.558-.291l-.488 1.071-.141-.002a1.577 1.577 0 0 1-.071.327h.019l-.028.027c-.162.483-.513.858-.703 1.51l-.421-.101.042.282c-.623-.251-1.164.432-1.375.774a1.694 1.694 0 0 0 1.41-.069 5.492 5.492 0 0 0-.351 1.308s-.495.92-.533.93l.14.049c.087.133-.006.069-.142.091l.044.189-.282.042c.058.228-.097.436.129.66l-.001.047c-.181-.092-.161-.09-.182-.332l-.094-.002a3.122 3.122 0 0 0-.254 1.122l.093.049.003-.188.235.004-.002.094-.379.181a.475.475 0 0 1-.053.328zm5.641-5.77l-.047-.001-.043-.236zm-.281-.052l-.005.282c-.111-.109-.103-.076-.136-.284zm-.7-.247c.168.105.032.039.235.004l-.148.42-.048.046-.086-.471zm-.192.231l.094.002.045.095-.142.091-.047-.001zm-.236.09l.047.001-.143.138zm-.2-1.975l-.049.093zm-.545 1.634l.141.002-.143.138-.092-.096zm-.189.044l.044.189-.047-.001-.046-.048zm-.514-.15l-.049.093-.045-.095zm-.003.188l.138.19-.095.045-.137-.237zm-.188 2.72l.094.002-.144.185zm-.201.748l.047.001-.096.139zm-.096.092l-.049.093-.045-.095zm-.161 1.171l-.094-.002-.043-.235c.121.096.093.054.137.237zm.045.095l-.052.281-.047-.001-.227-.427c.214.151.112.135.326.147zm-.243.465l-.096.092-.091-.142zm-.238.184l-.139-.096.139.096zm-.617-2.311l-.186-.097zm-.291.511l-.002.094zm-.779 1.583l.049-.093.141.002zM127.319 11.457l-.002.141.094.002-.091-.142zM77.189 10.722l-.002.094.104.002.013-.015zM118.016 11.858l-.141-.002.045.095zM119.167 13.145l.099-.28c.083.107.088.164.087.377.143-.123.133-.268.056-.515l.141.002c.091-.125.054-.097.005-.282a.516.516 0 0 1 .283-.089l-.137-.237c-.157.076-.132.123-.239.231l-.002.094-.183-.285c-.065-.227-.146-.266-.276-.146l.09.002.045.095-.142.091.003-.185a.512.512 0 0 0-.048.043l-.184-.191-.004.235c-.242.049-.37-.063-.475.32l-.047-.001-.092-.096.142-.091c-.08-.186-.022-.131-.231-.192a2.319 2.319 0 0 0-1.417.492l.045.095c-.243.904 2.33.334 2.479.513zm.195-.419l-.049.093-.045-.095zm-.274-.427l.042.282-.047-.001.005-.282zm-.192.231c-.123-.024-.073.03-.186-.097zm-.278-.24l.094.002.045.095-.189.044zm-.889-.156l-.049.14zm-.947.453l.047.001-.096.139zM118.999 12.016v.003l.003-.003h-.003zM81.494 11.549l.001-.047-.186-.097.138.143zM119.736 12.827c.151-.045.193.006.331-.135a2.286 2.286 0 0 1-.371-.241zM120.44 12.839l-.188-.003.097-.186-.092-.096-.147.326.329.006zM112.09 12.458l-.002.094.068-.065.009-.027zM80.735 11.958l-.094-.002.094.002zM120.397 12.65l-.002.094.096-.092zM125.135 12.827l-.045-.095-.049.093zM124.899 12.917l-.05.187.047.001zM131.559 13.315l-.094-.002.094.002zM131.606 13.316l-.002.141.047.001zM119.12 13.145l-.094-.002-.002.094zM126.3 13.364l-.049.093.093.049.047.001-.091-.142zM132.871 13.479l-.006.329.047.001c.034-.186.075-.204-.041-.329zM115.645 13.225l-.002.141.138.143c-.029-.212-.007-.183-.136-.284zM90.765 12.978l.047.001-.044-.142zM125.217 13.533l.14.049.047.001.001-.047-.186-.097zM127.235 13.615l.047.001.047.001.049-.14-.141-.002zM116.394 13.332l-.094-.002.094.002zM132.681 13.616l-.094-.002-.097.186-.001.047.093.049c.092-.104.056-.1.099-.28zM85.774 19.183c.178.101.078.056.282.005a2.491 2.491 0 0 0 .85 2.409l-.002.094.049-.14a.577.577 0 0 1 .466.196c.077-.091.065-.063.098-.233l.047.001.137.237s.712-.015.842.156l.144-.185-.004.235a.988.988 0 0 1 .565-.084l-.135-.331.142-.044c.034.238.034.148.183.285.102-.106.078-.118.238-.184l-.138-.19.233.098.144-.185-.179-.52.047.001.089.283.096-.092c.217.158.11.185.133.425l.705-.035.006-.329.187.05a1.288 1.288 0 0 0-.127-.8l.186.097.051-.234-.235-.004-.091-.142c.243.021.172.047.33-.088l.134.378c.161-.076.095-.063.191-.184l-.007.376c-.147.102-.082.049-.234-.051a2.53 2.53 0 0 0-.058.609l.142-.091c.182.032.137-.053.331-.135l-.138-.143.001-.047c.189.074.125.064.231.192l.191-.184c-.203-.163-.315-.2-.366-.523l.187.05-.185-.144c.229-.267.28-.308.246-.653.225.157.089.234.373.147l.138.143-.376-.007c-.11.152-.153.075-.003.188l-.002.141.329-.041-.044-.142.238-.184.047.001c-.038.218-.036.277-.194.372a.739.739 0 0 1 .317.663l.237-.137c-.074.191-.13.221.04.376.147.097.026.037.235.004l.044.189-.092-.096c-.213.297.832.349 1.08.019l.092.096c.249-.011.271.152.559.244a.213.213 0 0 1 .33-.088 6.745 6.745 0 0 0 .711-.41l.142-.044a1.31 1.31 0 0 0-.422-.054l.001-.047.471-.086.044.189.01-.563.095-.042v-.004l.003.002.517-.228.044.142.05-.187.094.002c.114.291.343.447.316.71a2.757 2.757 0 0 1 1.04-.404l-.001.047a.518.518 0 0 1-.331.135l-.049.093.376-.04c.071-.165.052-.187.007-.422.223.158.496.186.557.338.294-.201.335-.507.948-.5l.05-.187c-.096-.099-.086-.123-.088-.33l.047.001.087.377.139.096.096-.092c-.123-.313-.16-.341-.13-.613-.262-.03-.245-.083-.283.089l-.186-.097c.131-.148.148-.124.425-.133.118.188.086.277.132.519l.234.051c-.117-.336-.036-.206-.037-.564l.233.098.045.095-.237.137.044.142a.58.58 0 0 0 .422.007c-.146.353.027.615-.015.845a1.555 1.555 0 0 0 1.221-.026c.218.05.15-.007.146-.279l.047.001c.06.185.085.161.183.285-.132.061-.192.036-.332.182l.565-.084.001-.047-.231-.239c.211.009.194-.073.193-.278l.096-.092.037.564.279.146c.097-.147.037-.026.004-.235a.525.525 0 0 1 .422.054l-.04-.423.002-.094.326.147c.121-.241.142-.102.1-.327l.234.051c-.08-.113-.045-.081-.185-.144l.05-.187.418.242.003-.188.568-.272c.037.339.139 1.057.543 1.183l.003-.188c.233.085.166.077.184.238.238.12.405.033.748.201.085-.182.067-.099.005-.282l.281.052a2.546 2.546 0 0 1-.129-.707l.138.143c.044-.366-.24-.437-.557-.385.007-.16.022-.196-.183-.285l.235-.043.146-.279-.093-.049-.094-.002-.146.279-.142.044-.046-.048-.042-.282.091.189.146-.279.001-.047.002-.141.232.145a1.276 1.276 0 0 0 .07-.374h-.017l.019-.037a3.283 3.283 0 0 0-.011-.432c.303-.094.117-.115.377-.087a2.959 2.959 0 0 1 .339-.749l-.089-.139.123.085a4.303 4.303 0 0 1 .258-.36l-.188-.003c.16-.194.512-.669.716-.692l-.09-.236c.147.044.57-.769.72-.879-.124-.146-.028-.071-.186-.097-.073-.12-.116-.064.002-.141l-.185-.144-.235.043.184.191c-.166-.07-.149-.043-.231-.192l-.148.42-.047-.001c-.067-.205-.006-.173-.231-.239l.001-.047.329.006-.277-.287.091.189-.232-.145c-.12.22-.34.217-.476.367a1.093 1.093 0 0 0-.252.551l.007.008-.001.047h-.021a.647.647 0 0 1-.268.418l-.142.044a1.432 1.432 0 0 0-.579.882c-.114.068-.054.027-.092-.096a1.103 1.103 0 0 0-.388.697c-.316.032-.238-.048-.609-.105l-.001.047.121.151.017-.007.091.142-.109-.135a1.423 1.423 0 0 0-.553.405l-.001.047.378-.134-.002.094a2.553 2.553 0 0 1-.708.222l-.001.047.046.048c.211-.025.178-.067.231.192a.671.671 0 0 1-.371-.241c-.08.097-.076.091-.099.28l-.095.045c-.128-.218-.13-.082-.089-.283-.232.109-.164.086-.147.373-.107-.08-.11-.132-.184-.238l-.047-.001-.007.375-.094-.002-.187-.05-.43.415c.031-.549.095-.767-.029-1.033l.141.002c.016-.221.007-.588.294-.699-.056-.446.228-.52.384-.463l.197-.508.001-.052.014.013a2.185 2.185 0 0 1 .518-.896l-.271-.615c-.162-.06-.372-.027-.326-.147a1.238 1.238 0 0 0-.96 1.204l-.185-.144-.152.655c.151.111-.135.015-.188-.003l.041.329c-.195.006-.09.019-.234-.051-.08.967-.86 1.136-.789 2.193l-.231-.192c-.143.114-.122.103-.145.232.055.122-.048.073.138.143l-.001.047c-.24-.004-.159.016-.327-.1l-.05.187-.188-.003.146-.279-.333.276-.044-.189-.237.137c.01-.19.001-.172-.183-.285l-.095.045.092.096-.096.092c-.03.048-.37-.014-.515-.103-.19.117-.087.132-.333.229l.09.236c-.236-.24-.232-.368-.464-.29.057-.291.187-.196.006-.329l.189-.091.091.142c.148-.218-.015-.306-.132-.519.176.093.17-.035.143-.138l.235.004-.09-.236.232.145c.272-.243.517-.659.299-.981a1.009 1.009 0 0 1 .331-.135l-.005.282c.246-.132.326-.301.524-.46l-.053.375c.178-.156.166-.197.1-.374.069-.09.03-.085-.139-.096a1.999 1.999 0 0 0 .335-.37l-.124-.988-.189.09c.155-.678-.916-1.283-.917-1.284-.142-.102-.059-.044-.236.043l.05-.187a.68.68 0 0 1-.371-.241l-.146.279-.141-.002.004-.235-.191.184a7.136 7.136 0 0 1-.986-.017l.091.189c-.5.118-.284.155-.705.035l-.106.702c-.108-.148-.072-.207-.04-.423l-.286.138-.046.044v-.02c-.342.181-.74.455-.813.851l-.091-.189-.473.226a.693.693 0 0 0-.149.467l-.138-.143a2.062 2.062 0 0 1-.86.877c-.07.162-.078.298.088.33-.084.11-.048.08-.19.138l.091.189c-.14.132-.166.265-.237.137-.237.178-.181.132-.148.42l-.142.091.098-.233-.141-.002-.053.375.283-.089c-.105.203-.024.112-.19.138l-.093-.049c-.152.127-.187.192-.244.512a.443.443 0 0 0 .236-.09l.043.236-.281-.052c.117.177.222.533.319.569l-.096.092-.186-.097-.002.094c-.087.035.026.111.089.283a.956.956 0 0 0-.28-.099l.097-.186c-.203-.216-.213-.013-.23-.286-.17.127-.157-.031-.147.326l-.188-.003.005-.282-.141-.002-.056.515-.189.044-.14-.049c-.107-.305-.25-.101-.561-.151l-.047-.001-.004.235.237-.137.047.001c-.148.431-.064.279.035.705l-.001.047-.095.045.004-.235c-.077.091-.065.063-.098.233l-.095.045.002-.094c-.14-.058-.293-.399-.413-.524l.001-.047.235-.043.049-.093c-.232.027-.198-.017-.283.089-.204-.032-.143-.074-.237.137.152.198.249.187.417.289l-.053.375c-.218-.105-.016-.145-.183-.285l-.044-.142-.052.281c-.232-.193-.232-.032-.472.133l.097-.186-.14-.049a2.306 2.306 0 0 0-.374.231c.152.074.145.102.225.236-.156.067-.129.09-.238.184l.007-.416-.143.132-.188-.003-.042-.282c-.083.101-.086.125-.1.327-.167 0-.126.02-.232-.145l-.425.133-.049.093.33-.088.136.284-.189.044a4.999 4.999 0 0 0-.557-.338.871.871 0 0 1-.034-.752l-.19.138-.047-.001c.165-.302.345-.534.061-.797l.188.003c-.003-.34.041-.774.202-.795l.142-.091c.056.303.896.295 1.22.068a9.1 9.1 0 0 0 .944-.312 4.637 4.637 0 0 0 2.295-2.354c-.015-.273.042-.186-.137-.237l.142-.091c.019-.355-.072-1.189-.492-1.417l-.049.14-.086-.471-.187-.05a1.91 1.91 0 0 1-.369-.382l-.285.183.051-.234-.094-.002-.056.515-.047-.001c-.153-.295-.106-.388-.412-.618l.044.142c-.122-.004-.338.178-.475.32l-.092-.096-.657-.011.373.147a.532.532 0 0 0-.098.233l-.096.092c-.068-.204.083-.186-.183-.285l-.091-.189-.052.281c-.07.078-.045-.063-.045-.095-.185.097-.22.147-.147.373l-.188-.003.096-.139-.234-.051a.966.966 0 0 1 .037.564l-.142.044.052-.281-.14-.049-.147.326.186.097c-.264.035-.322.217-.662.27l.14.049-.145.232.138.143a2.142 2.142 0 0 0-.328-.053c.025.16.073.208.231.239-.144.098-.165.022-.327-.1l-.004.235c-.138.099-.145.06-.329-.006a5.256 5.256 0 0 1-.49 1.165l.095-.045a1.004 1.004 0 0 1-.193.278l-.096.092-.047-.001a1.035 1.035 0 0 1 .147-.326l-.092-.096-.197.513.376-.04c-.097.193-.145.311-.335.37l.273.474-.186-.097-.005.282c-.181.038-.152.022-.28-.099-.15.287-.043.446.082.659l-.186-.097-.047-.001-.004.235a.418.418 0 0 1 .189-.044l.042.282-.138-.143-.149.467zm5.607 1.553l-.143.138-.047-.001.05-.187.141.002zm14.754-.635l-.091-.189.091.189zm-.142.091l.141.002-.143.138zm-.138-.19l.094.002-.191.184zm2.067-5.457l.185.144-.096.092a.455.455 0 0 0-.328-.053zm-.632 1.257l.044.189-.141-.002zm-.636 1.444l-.049.093-.045-.095zm-.591-1.09l-.141-.002zm-.243.465l-.045-.095.045.095zm-1.024 2.189l.044.189c-.139-.093-.079-.009-.138-.19zm-.284.136l-.002.141-.092-.096.048-.046zm-.023-1.362l-.049.14-.043-.235zm-1.234.777l.047.001-.049.14zm-.212 1.405l.141.002c-.06.22-.064.107-.005.282l-.189.044-.047-.001.1-.327zm-.545-1.042l-.002.141-.138-.143zm.569-2.995l-.002.094zm-.38.275l-.139-.096zm-.426.18l.047.001-.049.14zm-.067 1.173l-.045-.095.045.095zm-.399 1.355c.1.104.042.083.09.236l-.095.045-.049.093.002-.141-.093-.049zm-1.092.685l-.047-.001-.091-.142.139.096zm-.088-.33l.141.002c-.113.053-.064.115-.141-.002zm1.028-2.423c-.128.072-.069.133-.188-.003zm-.223 2.015l.047.001-.049.14zm-.186-.097l-.002.094zm.161 1.552l.141.002a.717.717 0 0 1-.473.227zm-.537-1.512l.047.001-.049.14zm-.136-.284l.047.001-.096.139zm-.054.422l.094.002.046.048-.189.091-.142.044-.045-.095c.17-.03.142-.016.236-.09zm-1.322.399a1.009 1.009 0 0 1 .135.331l-.001.047-.187-.05a1.751 1.751 0 0 1 .053-.328zm.226.473l-.003.188-.328-.053-.043-.236c.176.094.152.136.374.1zm-.702-.106l.002-.141.092.096zm-.035-.658l.091.142-.094-.002zm-.348 1.121l-.045-.095.045.095zm.927-4.679l.047.001-.049.14zm-.21 1.264l.044.142-.091-.142zm-.22-.849l.094.002-.005.282-.141-.002zm-5.321 3.569l.141.002c-.113.053-.064.115-.141-.002zm-.09-.236l.001-.047.095-.045.047.001.044.142zm.267.85l-.047-.001.098-.233-.186-.097.049-.093.141.002c.021.213.039.261-.054.422zm.871 1.189l.05-.187.093.049zm.118-1.406l-.047-.001.097-.186.141.002-.001.047zm.115 1.504l.1-.374.041.329zm.503-1.916l.043.235c-.087-.139-.04-.049-.043-.236zm-.044-.142l.139.096zm.282.005l.002-.094-.002.094zm.432-.556l.095-.045.047.001c-.095.08-.01.102-.142.044zm.282-.042l.002-.141.047.001zm.099-.28l.139.096-.139-.096zm.256 1.46l-.044-.189.047.001.044.189zm.029-1.69l-.045-.095.045.095zm.476 2.309l-.047-.001-.09-.236.138.19zm-.04-3.099l.049-.14-.049.14zm.678-1.162l-.045-.095.045.095zm.482-.696l-.047-.001-.044-.142.091.142zm-1.998-1.209l.094.002-.142.091zm-.76.503l-.096.092-.091-.142zm-.425.133l.044.142-.091-.142zm-.293.652l.045.095-.094-.002zm-.461 2.199l-.049.093-.045-.095zm.147-.373l.188.003c.072-.112.029-.053-.092-.096.262-.826 1.91-1.609 2.202-2.403l.095-.045-.097.186a2.137 2.137 0 0 0 .944-.265c.365.289.317.549.456.759-.238.147-.253.399-.572.506.021.256.018.202.135.331l-.375-.053.135.331-.142.091.096-.139c-.306.072-.622.825-.676 1.068-.161.102.006.154.089.283-.205-.029-.111-.012-.279-.146l-.099.28.138.143c-.21.099-.221-.087-.18-.426-.197.079-.244.193-.335.37l-.001.047.191-.184.04.376-.232-.145-.05.187-.186-.097c-.105.243-.186.39-.058.656l-.188-.003.008-.469c-.212.167-.177.187-.149.467-.297-.116-.319-.152-.473.18l-.001.047.191-.184.047.001-.001.047c-.148.199-.11.172-.102.468-.258-.075-.243-.016-.467-.149a.593.593 0 0 1-.335.37l-.091-.142-.189.091.091.189-.28-.099a3.197 3.197 0 0 0 .252-.982l-.19.138a3.382 3.382 0 0 0 .544-1.587zm-.547 1.775l-.096.092-.093-.049.049-.093zm-.114-1.551l-.001.047-.189.044-.091-.189zm-.357-1.086c-.026.093.052.058-.096.139zm-.284.136l.047.001c.074.232.127.157.277.287l-.049.14-.142.044.05-.187-.282-.005zm-.057.562l-.091-.142.091.142zm-.065 1.032l-.045-.095.045.095zm.091.189c-.114.053-.064.115-.141-.002zm-.264-.991l.094.002-.142.091zm-1.442 1.947l.138.19c-.214-.096-.12-.009-.137-.19zm-.004.235l.047.001-.097.186zm-.051.234l.092.096-.19.138-.045-.095zm-.284.136l-.139-.096-.142.044-.047-.001-.04-.376a.627.627 0 0 1 .368.429zm-.389.791c-.103-.06-.116-.052-.185-.144.138.065.105.03.185.144zm-.053.375l-.096.139-.041-.329a.4.4 0 0 1 .138.19zm-.822-1.329l-.045-.095.045.095zm.498 1.042l-.048.046-.088-.33c.169.116.1.127.136.284zm-.464-.29l-.143.138.049-.14zm-.09-.236l-.049.093-.045-.095zm-.473.226l-.096.092-.042-.282a.4.4 0 0 1 .138.19zm-.659.082l-.049.14-.091-.142zm-.942.171l.093.049-.001.047-.095.045-.045-.095zm4.23-5.654l.047.001-.096.139zm-.202.795l-.095.045-.044-.142.095-.045.094.002zm.004-.235l-.047-.001-.137-.237c.14.098.123.047.184.238zm-.205-1.694l-.002.094zm-2.974 3.61l-.045-.095.045.095zm.758-.409l.003-.188.092.096zm1.423-.82l.049-.14.047.001-.096.139zm.147-.373l-.045-.095.045.095zm.218-1.733l.045.095-.094-.002-.096.092zm-.239.231c-.128.072-.069.133-.188-.003zm-.417-.336l.093.049-.096.092zm-.839-.343c-.11-.096-.104-.102-.136-.284.153.128.092.127.136.284zm-.187-.05l-.049.093-.045-.095zm-.468-.102l.138.143-.001.047-.187-.05zm-.051.234l.091.142-.094-.002zm-.377.087l.14.049-.097.186c-.089-.128-.056-.079-.043-.236zm-.151.561l.047.001-.049.14zm-.028 1.596l-.094-.002-.044-.142zm-.206-1.647l.094.002-.142.091zm.102 2.208l-.042-.282.235.004-.231-.239.234.051c.065-.717 1.229-1.962 1.865-1.939l.002-.141.044.189.188.003a1.918 1.918 0 0 1 .499.995c-.108.185-.144.259-.381.322l.138.143-.188-.003.135.331c-.249-.057-.258-.164-.33.088-.163-.028-.137-.019-.282.042l.231.192-.329.041c-.051-.051-1.269.421-1.423.82-.179-.136-.103-.114-.329-.006.017-.232-.111-.393-.223-.661zm-.297-1.836l-.048.046-.091-.142zm-.433 3.279l-.045-.095.045.095zm-.315 1.919l-.094-.002.049-.093zm.018-3.709l.047.001-.049.14zm-.05.187l.091.142-.094-.002zm-.009.516l.047.001-.096.092zm-.068-1.457c.07.116-.006.068-.096.139zm-.938 2.66l-.049.14-.138-.19zM127.702 13.717l.047.001-.044-.142-.049.093zM116.107 13.655l-.094-.002-.049.14.143-.138zM97.47 13.518l-.141-.002.091.142zM115.488 14.114l.142-.091-.094-.002zM132.615 14.695l.097-.186-.094-.002zM127.969 14.567l.044.189.143-.138-.138-.143zM88.403 13.829l-.002.141.047.001zM115.395 16.742a1.077 1.077 0 0 0-.339.604l.235-.043-.001.047c-.149.078-.158.055-.329.041.05.328.037.579-.153.702.37.338.311.352.266.897l.327.1c-.075.24-.024.146.04.423.302.08.502-.054.559.244l.239-.231-.003.188.284-.136-.005.282c.188-.027.14.006.236-.09-.15-.046-.158.006-.09-.236l-.328-.053c.126-.146.123-.119.146-.279.172-.034.12-.004.281.052l.052-.281-.284.136-.047-.001c.095-.137.093-.136.285-.183.006-.322-.1-.641-.366-.57l.099-.28c.209.062.097.114.235-.043l-.045-.095.142-.091-.18-.473.236-.09c-.073-.152.041-.139-.184-.238l.189-.044c-.029-.191.123-.372-.132-.519l.001-.047a.919.919 0 0 1 .469.055c-.121-.25-.404-.186-.561-.151l.382-.369-.044-.189.001-.047.231.192c.107-.207.109-.381.245-.606l-.139-.096-.053.375-.047-.001c-.02-.736.002-1.015-.729-1.28-.191.302-1.321 2.151-1.122 2.422zm-.342.792c.156.068.097.029.185.144-.138-.065-.105-.03-.185-.144zm.222.708l.002-.141.091.142zm1.753-3.585l-.049.093-.045-.095zm-.018 1.033l-.139-.096.139.096zm-.403 1.589l-.049.093-.045-.095zm-.404 1.636l.094.002-.097.186zm-.197.513l-.002.094zm-.229-3.009l.049-.093-.049.093zm-.18-.426l.142-.044.187.05-.284.136-.047-.001zm-.051.234l-.049.093zm-.002.141l.139.096-.001.047-.186-.097zM126.373 14.539l-.049.14.049-.14zM95.671 14.332l-.092-.096-.003.167.046-.024zM106.411 15.036l-.095.045-.002.094.167.003.014-.054zM115.655 15.291l-.052.281.047.001c.111-.141.107-.16.005-.282zM126.119 15.661l-.002.094.096-.092zM132.08 15.765l-.094-.002.094.002zM115.556 15.618l-.05.187c.069-.096.109-.058.05-.187zM87.206 15.17l-.094-.002.094.002zM117.571 15.841l.047.001-.044-.142-.049.093zM79.319 15.126l-.094-.002.094.002zM127.424 16.2l.236-.09-.093-.049-.142.091zM117.239 16.023l-.095.045-.049.093.188.003.049-.14zM78.609 15.442l-.049.14.14.049zM123.711 16.417l-.14-.049-.052.281.141.002zM138.448 16.722l-.092-.096.044.142zM103.15 16.246c.072-.119.123-.075.017-.174l-.015.039zM131.595 16.649l-.05.187.047.001zM86.582 15.91l-.003.188.141.002c-.062-.179.003-.097-.138-.19zM123.281 16.879l.139.096c.055-.226-.02-.092.099-.28l-.234-.051zM126.054 16.693l-.002.141.047.001zM117.367 16.776l-.092-.096-.048.046-.001.047.093.049zM134.352 17.401l.19-.138-.091-.189-.189.091-.001.047.092.096zM123.608 16.932l-.094-.002-.049.093.142-.091zM135.058 17.273l-.044-.142-.049.093.046.048zM131.587 17.118l-.094-.002-.002.094zM106.942 16.876l.047.001.001-.047-.017-.011-.034.054zM123.458 17.493l.193-.325-.373-.147-.051.234.142-.091c.089.145.03.048-.005.282zM116.941 16.956l-.049.14.142-.044zM88.45 16.506l-.002.094.096-.092zM102.718 16.755l-.097.186.044.189.047.001.002-.094a.18.18 0 0 0 .005-.282zM104.877 16.84c-.068.177 0 .097-.144.185l.235.004zM134.818 17.597l.093.049-.044-.142-.141-.002.092.096zM88.723 16.98l-.141-.002.045.095zM116.882 17.66l.047.001-.044-.142zM102.425 17.407l.096-.092-.094-.002zM86.279 17.172l-.139-.096.092.096zM134.108 17.913l.092.096.047.001-.139-.096zM86.18 17.452l-.094-.002.094.002zM132.549 18.45l.091.189.142-.044.098-.233-.094-.002zM106.232 18.178l.077.001-.045-.095-.029.056zM100.486 18.219l.001-.047-.186-.097.138.143zM136.72 18.898l.047.001.142-.091-.092-.096zM75.422 17.781l-.002.094.096-.092zM102.786 18.259l-.094-.002.094.002zM100.251 18.261l-.002.094.096-.092zM122.968 18.658l-.004.235.095-.045-.091-.189zM130.851 18.936l.047.001-.044-.142zM126.393 18.812l-.05.187.047.001zM100.061 18.399l-.002.094.096-.092zM130.801 19.076l.047.001-.044-.142zM84.428 18.267l-.002.094.096-.092zM127.138 19.153l.189-.091-.188-.003zM98.036 18.739l.141.002-.139-.096zM123.1 19.177l-.049.093-.001.047.282-.042c-.091-.077-.063-.065-.233-.098zM121.221 19.191l.066.02-.005-.019zM91.602 18.815l-.092-.096.044.142zM92.214 18.732l-.236.043c.071.161.097.153.231.239zM116.712 19.3l-.05.187c.134-.14.092-.04.05-.187zM95.022 19.25l-.138-.19-.004.235.093.049zM104.693 19.278l-.094-.002.094.002zM113.978 19.957l.047.001c.003-.214.013-.276-.087-.377l-.007.376zM116.753 19.676l-.002.094.096-.092zM106.694 20.346l.141.002a.484.484 0 0 0-.035-.658l-.241.371.143-.138.137.237-.141-.002zM103.839 19.78l.092.096-.044-.189zM116.889 19.96c-.063.129.048.099.185.144zM88.394 19.698l.094.002-.091-.142zM90.318 19.778l.047.001-.044-.142zM80.79 19.612l.142-.091-.094-.002zM117.118 20.246l.096-.092-.094-.002zM123.078 20.444l.191-.184-.141-.002-.097.186zM89.703 20.002l.143-.138-.186-.097-.049.14.045.095zM111.672 20.245l-.139-.096-.002.094zM89.14 19.992a.653.653 0 0 1 .375.053l.047.001.001-.047-.278-.193-.096.092zM103.741 20.06l-.143.138c.085-.044.245-.03.143-.138zM90.501 20.063l-.044-.142-.049.093.046.048zM91.859 20.228c-.018-.189-.012-.183-.089-.283l.044.142-.002.141zM78.579 19.855l.096-.092-.094-.002zM89.045 20.085l-.138-.143-.049.14zM96.51 20.074l-.002.094.096-.092zM112.137 20.535l.049-.093zM96.177 20.35l.092.096.188.003.001-.047-.275-.19-.003.001zM102.795 20.466l-.185-.144c.062.159.025.098.138.19zM92.374 20.331l.049-.093-.281-.052c.086.115.095.063.232.145zM88.807 20.268l-.092-.096-.002.141zM98.712 20.347l-.096.139-.001.047.093.049.047.001zM106.69 20.534l-.05.187.047.001zM112.041 20.627c-.061.189.019.098-.143.138l-.049.14.235.004.096-.092c-.056-.105-.048-.117-.138-.19zM91.996 20.465l.047.001-.138-.143zM88.994 20.319v.006l.005-.004-.005-.002zM100.915 20.574l-.002.141.094.002-.091-.142zM74.901 20.73l-.049.093.049-.093zM90.003 21.651l.047.001.047.001-.043-.235zM74.692 21.947l.091.189.047.001zM74.443 22.788l-.092-.096-.048.046-.001.047.093.049zM75.334 25.526l-.094-.002.094.002zM76.038 25.539l.091.189-.091-.189zM74.815 25.658l.096-.092-.094-.002z"/></svg>